<svg width="23" height="23" viewBox="0 0 23 23" fill="none" xmlns="http://www.w3.org/2000/svg">
<path d="M11.4999 0C5.15886 0 0 5.15886 0 11.4999C0 17.8411 5.15886 23 11.4999 23C17.8411 23 23 17.8411 23 11.4999C23 5.15886 17.8411 0 11.4999 0ZM11.4999 0.841458C17.3771 0.841458 22.1585 5.62287 22.1585 11.4999C22.1585 14.2371 21.1206 16.7359 19.4187 18.6255L17.7045 16.9112V10.4732C17.7045 9.3993 16.8956 8.49676 15.7865 8.28845V4.4803C15.8861 4.38118 15.9479 4.24415 15.9479 4.09293V2.81308C15.9479 2.5115 15.7024 2.26608 15.4009 2.26608H13.4333C13.1318 2.26608 12.8863 2.5115 12.8863 2.81308V4.09293C12.8863 4.24415 12.9481 4.38118 13.0477 4.4803V8.28845C11.9841 8.48822 11.1986 9.32692 11.1357 10.3424L4.37458 3.58121C6.26406 1.87935 8.76283 0.841458 11.4999 0.841458ZM17.1714 16.3782L11.6626 10.8693V10.4732C11.6626 9.59953 12.3832 8.87393 13.3388 8.78519C13.4758 8.77245 13.5807 8.65754 13.5807 8.5199V4.63994H15.2535V8.5199C15.2535 8.65754 15.3584 8.77245 15.4954 8.78519C16.451 8.87393 17.1714 9.59953 17.1714 10.4732V16.3782ZM11.6626 10.8693L17.1714 16.3782V18.9891C17.1714 19.1515 17.0175 19.2836 16.8279 19.2836H12.0061C11.8167 19.2836 11.6626 19.1515 11.6626 18.9891V10.8693ZM15.4028 3.93064L15.4009 4.1069L13.4194 4.09293V3.93064V2.81308C13.4194 2.80541 13.4257 2.79911 13.4333 2.79911L15.4148 2.81308L15.4028 3.93064ZM7.70556 14.6101H7.24484C6.46378 14.6101 5.82844 13.9746 5.82844 13.1937V10.0356C5.82844 9.87317 5.96047 9.74114 6.1229 9.74114H8.94798H9.58268V13.1937C9.58268 13.9746 8.94734 14.6101 8.16628 14.6101H7.70556ZM11.4999 22.1585C5.62287 22.1585 0.841458 17.3771 0.841458 11.4999C0.841458 8.76276 2.67265 5.47071 4.37458 3.58121L10.0014 9.20811H6.1229C5.6667 9.20811 5.29541 9.5794 5.29541 10.0356V13.1937C5.29541 14.2685 6.17001 15.1431 7.24484 15.1431H7.43905V19.2836H6.44557C6.29834 19.2836 6.17905 19.403 6.17905 19.5501C6.17905 19.6972 6.29834 19.8166 6.44557 19.8166H8.96556C9.11279 19.8166 9.23207 19.6972 9.23207 19.5501C9.23207 19.403 9.11279 19.2836 8.96556 19.2836H7.97208V15.1431H8.16628C9.24111 15.1431 10.1157 14.2685 10.1157 13.1937L10.0014 9.20811L11.1357 10.3424L11.1296 18.9891C11.1296 19.4454 11.5228 19.8166 12.0061 19.8166H16.8279C17.3111 19.8166 17.7045 19.4454 17.7045 18.9891V16.9112L19.4187 18.6255C17.5292 20.3274 14.2371 22.1585 11.4999 22.1585Z" fill="#F38821"/>
</svg>
