<svg width="22" height="23" viewBox="0 0 22 23" fill="none" xmlns="http://www.w3.org/2000/svg">
<path d="M11 -5.81332e-05C8.8244 -5.81332e-05 6.69767 0.674405 4.88873 1.93804C3.07979 3.20168 1.66989 4.99773 0.837326 7.09908C0.00476194 9.20043 -0.213075 11.5127 0.211363 13.7435C0.6358 15.9743 1.68345 18.0234 3.22183 19.6317C4.7602 21.24 6.72021 22.3352 8.854 22.779C10.9878 23.2227 13.1995 22.995 15.2095 22.1245C17.2195 21.2541 18.9375 19.7802 20.1462 17.889C21.3549 15.9978 22 13.7744 22 11.4999C21.9964 8.4511 20.8364 5.5282 18.7742 3.37234C16.7121 1.21648 13.9163 0.00367591 11 -5.81332e-05ZM11 0.564359C12.4013 0.563903 13.7884 0.858813 15.0782 1.43146C16.368 2.00411 17.9013 3.26041 18.8741 4.31491L14.3958 8.61859C14.3747 8.53914 14.2145 7.82316 14.1853 7.74657C14.0007 7.32386 13.7508 6.93581 13.4456 6.59798C13.1363 6.27214 12.8962 5.8817 12.7411 5.45221C12.7166 5.31064 12.704 5.16712 12.7033 5.02325C12.8256 4.9528 12.9276 4.84945 12.9988 4.72391C13.07 4.59837 13.1078 4.45521 13.1082 4.30927V4.04117C13.1082 3.82336 13.0255 3.61448 12.8781 3.46047C12.7308 3.30646 12.531 3.21994 12.3227 3.21994H9.6773C9.46897 3.21994 9.26917 3.30646 9.12185 3.46047C8.97454 3.61448 8.89178 3.82336 8.89178 4.04117V4.30927C8.89224 4.45521 8.93003 4.59837 9.00123 4.72391C9.07242 4.84945 9.17443 4.9528 9.29669 5.02325C9.29604 5.16712 9.28339 5.31064 9.25889 5.45221C9.10378 5.8817 8.8637 6.27214 8.55435 6.59798C8.24918 6.93581 7.9993 7.32386 7.81472 7.74657C7.59649 8.45532 7.49606 9.19793 7.51779 9.94215C7.51779 10.1087 7.51779 10.2752 7.50159 10.436C7.4665 11.2036 7.44491 12.022 7.43141 13.0182C7.43141 13.5572 7.41791 14.8356 7.41791 15.3267L3.49301 19.1026C2.16971 17.5226 0.942987 15.1596 0.650012 13.0819C0.357038 11.0042 0.643113 8.88231 1.47398 6.97024C2.30485 5.05817 3.64529 3.43701 5.33477 2.3009C7.02426 1.16478 8.99119 0.561868 11 0.564359ZM13.9423 9.95626C13.9423 10.1284 13.9423 10.2977 13.9585 10.4642C13.9936 11.2234 14.0152 12.0361 14.0287 13.0267C14.0557 14.9457 14.0449 16.5289 13.9963 18.002C13.9858 18.3287 13.8539 18.6382 13.6285 18.8648C13.4032 19.0913 13.1023 19.2172 12.7897 19.2155H9.21031C8.89587 19.2171 8.59337 19.0897 8.36777 18.8607C8.14217 18.6317 8.01145 18.3194 8.00368 17.9907C7.97129 17.0002 7.96049 15.1969 7.96049 14.0398L8.31681 13.7558L8.3654 17.2288C8.36076 17.5193 8.44201 17.8042 8.59806 18.0446C8.75412 18.2851 8.97736 18.4693 9.2373 18.5721C9.79296 18.7825 10.3793 18.8904 10.9703 18.891C11.5902 18.8936 12.2055 18.7799 12.787 18.5552C13.0411 18.4487 13.2582 18.2641 13.4096 18.0257C13.561 17.7873 13.6394 17.5064 13.6346 17.2203V9.65429C13.6323 9.57173 13.1449 9.18753 13.0947 9.12374L13.8074 8.41258C13.829 8.69761 13.9342 9.6684 13.9423 9.95626ZM12.374 9.80669C11.9193 9.87873 11.4599 9.91271 11 9.90828C10.3405 9.93316 9.68124 9.8513 9.04564 9.66558C9.68067 9.47606 10.3399 9.39038 11 9.4116C11.5434 9.40303 12.0861 9.45315 12.6196 9.56117L12.374 9.80669ZM13.0947 10.2018V17.209C13.0995 17.3795 13.0548 17.5475 12.9667 17.691C12.8785 17.8345 12.751 17.9469 12.6007 18.0133C11.5784 18.4216 10.4497 18.4317 9.42086 18.0415C9.26525 17.9782 9.13218 17.8661 9.03988 17.7206C8.94758 17.5751 8.90057 17.4033 8.90528 17.2288L8.82621 13.3497C8.82625 13.3107 8.92131 13.322 8.90528 13.2867L12.6196 10.326C12.7814 10.2948 12.9403 10.2495 13.0947 10.1905V10.2018ZM13.0947 9.12374C12.4164 8.90876 11.7082 8.81525 11 8.84718C8.55435 8.84718 8.3654 9.46521 8.3654 9.65429V12.0813C8.3654 12.1561 8.39384 12.2279 8.44446 12.2808C8.49508 12.3338 8.56374 12.3635 8.63534 12.3635C8.70693 12.3635 8.77559 12.3338 8.82621 12.2808C8.87683 12.2279 8.90528 12.1561 8.90528 12.0813V10.1905C9.5829 10.4093 10.2914 10.5048 11 10.4727C11.2699 10.4727 12.4064 10.3485 12.6196 10.326L7.96049 14.0398C7.96049 13.7125 7.96049 13.3766 7.96049 13.0267C7.96049 12.0361 7.99558 11.2234 8.03067 10.4642C8.03067 10.2977 8.03067 10.1284 8.04687 9.95626C8.0308 9.27646 8.122 8.59854 8.31681 7.94975C8.48305 7.58705 8.70255 7.25377 8.96736 6.96203C9.32928 6.57386 9.60567 6.10769 9.77718 5.59614C9.80891 5.44402 9.82609 5.28898 9.82846 5.13331H12.1661C12.1685 5.28898 12.1857 5.44402 12.2174 5.59614C12.3889 6.10769 12.6653 6.57386 13.0272 6.96203C13.292 7.25377 13.5116 7.58705 13.6778 7.94975C13.7323 8.10031 13.7756 8.25504 13.8074 8.41258L13.0947 9.12374ZM12.5791 4.3262C12.5791 4.39457 12.5533 4.46019 12.5074 4.50879C12.4614 4.5574 12.3989 4.58509 12.3335 4.58583H9.6773C9.6119 4.58509 9.54943 4.5574 9.50344 4.50879C9.45745 4.46019 9.43165 4.39457 9.43165 4.3262V4.0581C9.43165 3.98999 9.45753 3.92467 9.5036 3.87651C9.54967 3.82835 9.61215 3.80129 9.6773 3.80129H12.3227C12.3878 3.80129 12.4503 3.82835 12.4964 3.87651C12.5425 3.92467 12.5683 3.98999 12.5683 4.0581L12.5791 4.3262ZM11 22.4355C9.59867 22.436 8.21164 22.1411 6.92181 21.5684C5.63197 20.9958 4.46581 20.1571 3.49301 19.1026L7.41791 15.3267C7.41791 16.289 7.43681 17.1752 7.4638 18.0218C7.47924 18.4947 7.6702 18.9427 7.99623 19.2709C8.32225 19.5991 8.75771 19.7817 9.21031 19.7799H12.7897C13.2423 19.7817 13.6777 19.5991 14.0038 19.2709C14.3298 18.9427 14.5208 18.4947 14.5362 18.0218C14.5848 16.5374 14.5956 14.9485 14.5686 13.0182C14.5686 12.022 14.5335 11.2036 14.4984 10.436C14.4984 10.2752 14.4984 10.1087 14.4822 9.94215C14.4778 9.49959 14.449 9.05767 14.3958 8.61859L18.8741 4.31491C20.1974 5.89497 21.057 7.84032 21.35 9.91798C21.643 11.9957 21.3569 14.1176 20.526 16.0296C19.6951 17.9417 18.3547 19.5629 16.6652 20.699C14.9757 21.8351 13.0088 22.438 11 22.4355ZM10.7301 17.7255C10.7301 17.6506 10.7585 17.5788 10.8091 17.5259C10.8597 17.473 10.9284 17.4432 11 17.4432C11.2699 17.4432 12.1337 17.3247 12.3497 16.8958C12.3835 16.8314 12.4399 16.7834 12.507 16.7618C12.5742 16.7403 12.6467 16.7469 12.7092 16.7803C12.7717 16.8137 12.8193 16.8713 12.8419 16.9408C12.8645 17.0103 12.8603 17.0863 12.8302 17.1526C12.4334 17.9569 11.1593 17.9992 11.0162 17.9992C10.9801 18.0015 10.9439 17.9962 10.9098 17.9835C10.8757 17.9709 10.8443 17.9512 10.8177 17.9257C10.791 17.9002 10.7695 17.8693 10.7544 17.8349C10.7394 17.8005 10.7311 17.7633 10.7301 17.7255Z" fill="#F38821"/>
</svg>
