<svg width="23" height="23" viewBox="0 0 23 23" fill="none" xmlns="http://www.w3.org/2000/svg">
<path d="M11.5001 0C5.15892 0 0 5.15879 0 11.4999C0 17.8411 5.15892 23 11.5001 23C17.8411 23 23 17.8411 23 11.4999C23 5.15879 17.8411 0 11.5001 0ZM11.5001 22.1585C5.62294 22.1585 0.841468 17.3771 0.841468 11.4999C0.841468 8.76278 2.67264 5.47078 4.37455 3.58129L9.27358 8.48032L9.4116 10.7141C9.33148 10.6738 9.23547 10.679 9.16014 10.728C9.08468 10.7771 9.04113 10.8625 9.04565 10.9524L9.13494 12.7057C9.16056 13.2081 9.48706 13.6652 10.0085 13.9287L10.0086 13.929L11.2477 14.5553V15.1762C11.1087 15.0352 10.9424 14.9112 10.749 14.8132L9.21041 14.0331C9.12988 13.992 9.03401 13.9972 8.95868 14.0465C8.88322 14.0956 8.83953 14.1813 8.84405 14.2711L8.94156 16.1907C8.96909 16.732 9.32066 17.2253 9.88205 17.5099L11.2477 18.2023V20.1951C11.2477 20.3345 11.3606 20.4477 11.5001 20.4477C11.6395 20.4477 11.7525 20.3345 11.7525 20.1951V18.2022L13.118 17.5099C13.6795 17.225 14.0312 16.732 14.0583 16.1907L13.8073 13.014L19.4187 18.6254C17.5292 20.3274 14.2372 22.1585 11.5001 22.1585ZM9.77372 8.37291L10.6665 8.82241C10.9837 8.9821 11.1815 9.24451 11.1957 9.52445L11.1853 11.6402L9.81398 10.6703L9.77372 8.37291ZM13.3664 12.5731L12.582 11.7887L13.428 11.3611L13.3664 12.5731ZM13.8796 13.9287L12.2511 14.8132C12.0577 14.9112 11.8914 15.0353 11.7525 15.1762V14.5552L12.9917 13.929C13.0236 13.9129 13.7769 13.0316 13.8073 13.014L13.8796 13.9287ZM11.2345 17.6295L10.1105 17.0596C9.7125 16.8577 9.46405 16.5233 9.44584 16.165L9.37038 14.6804L10.5207 15.2635C10.9187 15.4651 11.1671 15.7996 11.1853 16.1581L11.2472 17.3781L11.2345 17.6295ZM10.2364 13.4784C9.87863 13.2974 9.65552 12.9991 9.63922 12.68L9.57198 11.3611L10.5934 11.8771C10.9511 12.0582 11.1742 12.3565 11.1905 12.6756L11.2472 13.7875L11.2372 13.9841L10.2362 13.4781L10.2364 13.4784ZM11.7525 17.6361V17.384L11.7528 17.3778L11.8148 16.1579C11.8329 15.7996 12.0813 15.4651 12.4795 15.2635L13.6296 14.6804L13.5543 16.1653C13.5362 16.5233 13.2875 16.8577 12.8895 17.0596L11.7656 17.6295L11.7525 17.6361ZM13.3664 12.5731L11.7628 13.9841L11.7525 13.9893V13.793L11.7528 13.7875L11.8095 12.6756C11.8106 12.6539 12.582 11.7887 12.582 11.7887L13.3664 12.5731ZM11.7525 10.674V10.5382L11.7529 10.5309L11.8043 9.52445C11.8185 9.24451 12.0164 8.9821 12.3337 8.82241L13.2264 8.37291L13.1675 9.52582C13.1533 9.80576 12.9552 10.0684 12.6381 10.2281L11.76 10.6703L11.7525 10.674ZM11.2429 7.68752L10.4877 7.30902C10.2109 7.17015 10.0383 6.94362 10.026 6.70312L9.97518 5.71579L10.7393 6.09873C11.0161 6.23733 11.1888 6.46386 11.2011 6.70449L11.2472 7.60364L11.2429 7.68752ZM11.7525 7.68984V7.60944L11.7528 7.60328L11.799 6.70449C11.8112 6.46386 11.9839 6.23747 12.2607 6.09873L13.0248 5.71579L12.9741 6.70312C12.9618 6.94362 12.7893 7.17015 12.5123 7.30902L11.7571 7.68751L11.7525 7.68984ZM11.2477 4.92214L10.9376 4.36731C10.8706 4.24747 10.872 4.10024 10.9413 3.97369L11.4172 3.10552C11.441 3.06183 11.4819 3.05306 11.4958 3.05731C11.5217 3.05731 11.5409 3.06813 11.5527 3.08908L12.0624 4.00122C12.1294 4.1212 12.128 4.26829 12.0587 4.39497L11.7525 4.95352L11.5828 5.26301C11.559 5.30684 11.5213 5.31341 11.5042 5.31122C11.5026 5.31122 11.5016 5.31031 11.5 5.31023C11.4765 5.30898 11.4584 5.29924 11.4473 5.27945L11.2477 4.92214ZM19.4187 18.6254L13.8073 13.014C13.8382 12.9139 13.8596 12.8112 13.8649 12.7057L13.9542 10.9524C13.9589 10.8625 13.9153 10.7771 13.84 10.728C13.7641 10.679 13.6685 10.6735 13.5883 10.7141L11.7525 11.8771V11.4999L12.8651 10.679C13.3469 10.4366 13.648 10.015 13.6715 9.55157L13.7526 7.96505C13.7573 7.87521 13.7137 7.78975 13.6384 7.74072C13.5631 7.69168 13.4675 7.68621 13.3869 7.72675L12.1068 8.37154C11.9737 8.43848 11.856 8.52018 11.7525 8.6116V8.25467L12.7386 7.76044C13.1801 7.53884 13.4565 7.15344 13.4781 6.72887L13.5513 5.30903C13.5559 5.21932 13.5127 5.13386 13.4373 5.08469C13.3626 5.03566 13.267 5.03005 13.1862 5.07031L12.0345 5.64732C11.9307 5.69936 11.8369 5.76115 11.7525 5.82971V5.75591C11.8653 5.70307 11.9632 5.61944 12.0254 5.50584L12.5014 4.63766C12.6548 4.35758 12.6556 4.02765 12.503 3.75497L11.9933 2.84269C11.8915 2.66082 11.7058 2.55248 11.4958 2.55248C11.495 2.55248 11.494 2.55248 11.4931 2.55248C11.2776 2.55344 11.0789 2.67232 10.9746 2.86283L10.4985 3.731C10.3451 4.01108 10.3446 4.34101 10.4969 4.61356L11.0066 5.5257C11.0636 5.62758 11.1485 5.70321 11.2477 5.75288V5.82979C11.1632 5.76118 11.0694 5.69936 10.9655 5.64732L9.81398 5.07031C9.73359 5.03005 9.63813 5.03566 9.5628 5.08469C9.48761 5.13386 9.4442 5.21932 9.44872 5.30903L9.52171 6.72887C9.54363 7.15344 9.82001 7.53911 10.2614 7.76044L11.2477 8.25473V8.61153C11.1442 8.52012 11.0265 8.43845 10.8935 8.37154L9.61293 7.72675C9.53226 7.68621 9.4368 7.69196 9.36147 7.74072C9.28615 7.78975 9.24273 7.87521 9.24725 7.96505L9.27358 8.48032L4.37455 3.58129C6.26407 1.87939 8.76288 0.841468 11.5001 0.841468C17.3771 0.841468 22.1585 5.6228 22.1585 11.4999C22.1585 14.2371 21.1206 16.7359 19.4187 18.6254Z" fill="#F38821"/>
</svg>
