<svg width="23" height="23" viewBox="0 0 23 23" fill="none" xmlns="http://www.w3.org/2000/svg">
<path d="M11.343 22.686C9.09957 22.686 6.90652 22.0208 5.04117 20.7744C3.17583 19.528 1.72196 17.7564 0.86344 15.6838C0.00491472 13.6111 -0.219714 11.3304 0.217958 9.1301C0.65563 6.92977 1.73595 4.90864 3.32229 3.32229C4.90864 1.73595 6.92977 0.65563 9.1301 0.217958C11.3304 -0.219715 13.6111 0.00491492 15.6838 0.86344C17.7564 1.72196 19.528 3.17582 20.7744 5.04117C22.0208 6.90652 22.686 9.09957 22.686 11.343C22.686 14.3514 21.4909 17.2365 19.3637 19.3637C17.2365 21.4909 14.3514 22.686 11.343 22.686ZM11.343 0.553322C9.20901 0.553322 7.12293 1.18613 5.34858 2.37171C3.57422 3.5573 2.19128 5.24242 1.37464 7.21397C0.557992 9.18553 0.344321 11.355 0.760643 13.448C1.17697 15.541 2.20458 17.4635 3.71355 18.9725C5.22251 20.4814 7.14505 21.509 9.23804 21.9254C11.331 22.3417 13.5005 22.128 15.472 21.3114C17.4436 20.4947 19.1287 19.1118 20.3143 17.3374C21.4999 15.5631 22.1327 13.477 22.1327 11.343C22.129 8.48253 20.9911 5.74025 18.9684 3.71759C16.9458 1.69492 14.2035 0.556983 11.343 0.553322Z" fill="#F38821"/>
<path d="M11.3411 20.6139C9.50755 20.6139 7.71513 20.0702 6.19055 19.0515C4.66597 18.0328 3.4777 16.5849 2.77602 14.8909C2.07433 13.1969 1.89074 11.3328 2.24845 9.53445C2.60617 7.73608 3.48913 6.08418 4.78568 4.78763C6.08223 3.49108 7.73413 2.60812 9.5325 2.25041C11.3309 1.89269 13.1949 2.07628 14.8889 2.77797C16.583 3.47966 18.0309 4.66792 19.0496 6.1925C20.0682 7.71708 20.612 9.5095 20.612 11.3431C20.609 13.801 19.6314 16.1573 17.8934 17.8953C16.1554 19.6333 13.799 20.611 11.3411 20.6139ZM11.3411 2.63112C9.61675 2.63112 7.93109 3.14253 6.49738 4.10067C5.06367 5.05881 3.94633 6.42062 3.28669 8.01386C2.62704 9.6071 2.45473 11.3602 2.79155 13.0514C3.12836 14.7426 3.95917 16.2959 5.17889 17.5148C6.39861 18.7337 7.95244 19.5636 9.64384 19.8993C11.3352 20.2351 13.0882 20.0616 14.681 19.401C16.2738 18.7403 17.635 17.6221 18.5922 16.1878C19.5494 14.7535 20.0597 13.0675 20.0587 11.3431C20.0557 9.03197 19.1363 6.81634 17.5021 5.18212C15.8679 3.5479 13.6523 2.62851 11.3411 2.62559V2.63112Z" fill="#F38821"/>
<path d="M14.0077 13.003C13.9363 13.0045 13.865 12.9989 13.7947 12.9864C13.7231 12.9699 13.6611 12.9257 13.6222 12.8634C13.5832 12.8011 13.5707 12.726 13.5872 12.6544C13.6037 12.5829 13.6479 12.5208 13.7102 12.4819C13.7725 12.443 13.8476 12.4304 13.9192 12.4469C14.1958 12.5133 15.8115 12.2173 17.4825 11.8438C16.8628 11.5948 15.8945 11.1411 15.3467 10.881V11.4344C15.3467 11.5077 15.3176 11.5781 15.2657 11.63C15.2138 11.6819 15.1434 11.711 15.0701 11.711C14.9967 11.711 14.9263 11.6819 14.8744 11.63C14.8225 11.5781 14.7934 11.5077 14.7934 11.4344V10.4412C14.7935 10.3945 14.8055 10.3487 14.8281 10.3079C14.8507 10.2671 14.8832 10.2326 14.9227 10.2078C14.9622 10.183 15.0073 10.1685 15.0538 10.1658C15.1004 10.163 15.1469 10.1721 15.189 10.1922C15.8502 10.5131 17.6596 11.3652 18.0773 11.4731L18.6168 11.617C18.6754 11.6329 18.7272 11.6677 18.7641 11.7159C18.8009 11.7642 18.8209 11.8232 18.8209 11.8839C18.8209 11.9447 18.8009 12.0037 18.7641 12.052C18.7272 12.1002 18.6754 12.135 18.6168 12.1509C17.9667 12.3031 14.9898 13.003 14.0077 13.003Z" fill="#F38821"/>
<path d="M11.0035 14.3144C10.6783 14.3219 10.3535 14.2856 10.038 14.2065C9.39058 14.0239 9.41825 13.4485 9.42655 13.1248C9.43233 13.0511 9.43233 12.9771 9.42655 12.9035C9.42164 12.8671 9.42394 12.8302 9.43331 12.7948C9.44269 12.7593 9.45895 12.7261 9.48117 12.6969C9.52605 12.638 9.59248 12.5994 9.66586 12.5895C9.73923 12.5796 9.81353 12.5992 9.87242 12.6441C9.93131 12.689 9.96996 12.7554 9.97986 12.8288C9.9868 12.9338 9.9868 13.0392 9.97986 13.1442C9.97986 13.5315 10.0048 13.6228 10.1901 13.6754C11.2082 13.952 13.1476 13.5038 13.4575 13.324C13.6096 12.945 13.5377 10.6598 13.38 8.7121C13.377 8.67574 13.3812 8.63915 13.3923 8.60442C13.4035 8.56969 13.4214 8.53752 13.4451 8.50975C13.4688 8.48198 13.4977 8.45916 13.5302 8.44261C13.5627 8.42606 13.5982 8.4161 13.6345 8.41331C13.6709 8.41028 13.7075 8.41448 13.7422 8.42565C13.7769 8.43682 13.8091 8.45475 13.8369 8.47841C13.8646 8.50206 13.8875 8.53098 13.904 8.56349C13.9206 8.596 13.9305 8.63146 13.9333 8.66783C14.1823 11.7609 14.1519 13.4651 13.8337 13.7334C13.5156 14.0018 12.1572 14.3144 11.0035 14.3144Z" fill="#F38821"/>
<path d="M13.657 13.7996C13.6107 13.7995 13.5652 13.7879 13.5246 13.7656C13.484 13.7434 13.4496 13.7113 13.4246 13.6724C12.8132 12.729 11.0066 10.1699 9.99126 9.66911C9.92561 9.63643 9.87563 9.57903 9.85228 9.50952C9.82894 9.44 9.83415 9.36407 9.86676 9.29839C9.89944 9.23274 9.95684 9.18276 10.0264 9.15941C10.0959 9.13607 10.1718 9.14128 10.2375 9.17389C11.6042 9.85171 13.7953 13.2269 13.8894 13.3708C13.9094 13.4014 13.9231 13.4357 13.9298 13.4717C13.9364 13.5077 13.9359 13.5446 13.9281 13.5804C13.9204 13.6162 13.9057 13.65 13.8848 13.6801C13.8639 13.7101 13.8372 13.7357 13.8064 13.7554C13.7619 13.7841 13.71 13.7995 13.657 13.7996Z" fill="#F38821"/>
<path d="M6.45501 14.2925C5.99854 14.3144 5.54293 14.2341 5.12152 14.0573C4.45754 13.7115 4.89466 12.3586 4.90019 12.3448C4.92303 12.277 4.97122 12.2207 5.03467 12.1877C5.09811 12.1547 5.17188 12.1475 5.24048 12.1677C5.2753 12.179 5.30753 12.197 5.33532 12.2209C5.36311 12.2447 5.38589 12.2738 5.40236 12.3064C5.41883 12.3391 5.42865 12.3747 5.43126 12.4112C5.43386 12.4477 5.4292 12.4844 5.41754 12.5191C5.27645 12.9424 5.26815 13.515 5.36775 13.5648C6.16729 13.9798 8.0624 13.5925 8.36949 13.4071C8.47462 13.053 8.54379 10.6184 8.54379 8.42729C8.54379 8.35392 8.57293 8.28355 8.62482 8.23167C8.6767 8.17978 8.74707 8.15063 8.82044 8.15063C8.89382 8.15063 8.96419 8.17978 9.01607 8.23167C9.06796 8.28355 9.0971 8.35392 9.0971 8.42729C9.0971 10.2477 9.06114 13.3601 8.82044 13.7225C8.64615 14.0213 7.49248 14.2925 6.45501 14.2925Z" fill="#F38821"/>
</svg>
