<svg width="23" height="22" viewBox="0 0 23 22" fill="none" xmlns="http://www.w3.org/2000/svg">
<path d="M11.5 0C9.22552 0 7.00211 0.645139 5.11095 1.85383C3.21978 3.06253 1.7458 4.78049 0.87539 6.79048C0.0049827 8.80047 -0.222756 11.0122 0.220974 13.146C0.664704 15.2798 1.75997 17.2398 3.36828 18.7782C4.97658 20.3165 7.02568 21.3642 9.25646 21.7886C11.4872 22.2131 13.7995 21.9952 15.9009 21.1627C18.0022 20.3301 19.7983 18.9202 21.0619 17.1113C22.3255 15.3023 23 13.1756 23 11C22.9963 8.08371 21.7835 5.2879 19.6276 3.22577C17.4717 1.16364 14.5488 0.00357169 11.5 0ZM11.5 21.4601C9.33715 21.4601 7.22287 20.8466 5.42452 19.6973C3.62617 18.5479 2.22453 16.9142 1.39684 15.0029C0.569155 13.0916 0.352595 10.9884 0.774546 8.95933C1.1965 6.93026 2.23801 5.06645 3.76738 3.60358C5.29675 2.1407 7.24528 1.14447 9.36658 0.740866C11.4879 0.33726 13.6867 0.544405 15.6849 1.33611C17.6831 2.12781 19.391 3.46851 20.5926 5.18867C21.7942 6.90882 22.4356 8.93118 22.4356 11C22.4326 13.7733 21.2795 16.4322 19.2293 18.3933C17.1792 20.3543 14.3994 21.4573 11.5 21.4601ZM16.052 4.90748C16.0146 4.88594 15.9724 4.87302 15.9288 4.86974C15.8852 4.86646 15.8414 4.87291 15.8009 4.88859C15.7607 4.90407 15.7248 4.92819 15.6959 4.95908C15.667 4.98998 15.646 5.02682 15.6344 5.06675C15.5633 5.30683 15.4126 5.5183 15.2049 5.66925C14.9972 5.8202 14.7438 5.90244 14.4829 5.90356C14.2167 5.90431 13.958 5.81866 13.7492 5.66061C13.7193 5.63807 13.685 5.62154 13.6482 5.61202C13.6115 5.60251 13.5731 5.60021 13.5354 5.60525C13.4977 5.61029 13.4614 5.62258 13.4288 5.64137C13.3962 5.66017 13.3679 5.68507 13.3456 5.7146C13.2361 5.86176 13.0913 5.98168 12.9234 6.06434C12.7555 6.14699 12.5693 6.18998 12.3805 6.18969C12.2044 6.18987 12.0304 6.15295 11.871 6.08157C11.7115 6.0102 11.5704 5.9061 11.4577 5.77669C11.4314 5.74656 11.3987 5.72227 11.3616 5.70548C11.3246 5.6887 11.2842 5.67984 11.2432 5.67951C11.2026 5.67917 11.1625 5.68719 11.1255 5.70303C11.0885 5.71887 11.0555 5.74215 11.0287 5.77129C10.4982 6.35705 9.78135 7.4908 9.36086 9.57472C9.26209 10.0687 8.86982 10.614 8.49448 11.1404C8.07117 11.7315 7.61117 12.374 7.56319 12.9975L6.43436 14.0773C6.18191 13.9801 5.90209 13.9694 5.64232 14.0469C5.38255 14.1245 5.1588 14.2856 5.009 14.5029C4.8592 14.7202 4.79256 14.9804 4.82037 15.2393C4.84818 15.4983 4.96873 15.74 5.1616 15.9237C5.32624 16.0812 5.53672 16.1875 5.76553 16.2287C5.8077 16.4485 5.9201 16.6503 6.08724 16.8064C6.30882 17.0172 6.60864 17.1356 6.92117 17.1356C7.2337 17.1356 7.53352 17.0172 7.7551 16.8064C7.9182 16.6501 8.03016 16.4517 8.07727 16.2355C8.12438 16.0192 8.10461 15.7946 8.02037 15.589L9.14921 14.5092C9.79829 14.4633 10.4671 14.0287 11.0852 13.6238C11.6355 13.2648 12.214 12.8923 12.722 12.7951C15.9363 12.1985 16.9748 10.973 17.1442 10.7678C18.6032 9.35067 18.5157 7.06699 16.9382 5.55534C16.671 5.30619 16.3735 5.08867 16.052 4.90748ZM7.47571 15.3406C7.42948 15.3845 7.40057 15.4424 7.39389 15.5044C7.3872 15.5664 7.40315 15.6287 7.43902 15.6807C7.51664 15.7935 7.55117 15.9284 7.53677 16.0627C7.52237 16.1969 7.45993 16.3223 7.36 16.4177C7.24326 16.5252 7.08749 16.5853 6.9254 16.5853C6.76332 16.5853 6.60754 16.5252 6.4908 16.4177C6.43133 16.3609 6.38483 16.293 6.35422 16.2182C6.32362 16.1434 6.30959 16.0633 6.31301 15.9831C6.31301 15.9115 6.28328 15.8428 6.23035 15.7922C6.17743 15.7416 6.10565 15.7131 6.0308 15.7131C5.94571 15.7164 5.86087 15.7022 5.782 15.6715C5.70313 15.6408 5.63208 15.5942 5.57362 15.535C5.46887 15.4316 5.40738 15.295 5.40081 15.1511C5.39424 15.0073 5.44303 14.8661 5.53796 14.7544C5.63289 14.6426 5.76736 14.568 5.91591 14.5447C6.06446 14.5214 6.21679 14.5511 6.34405 14.628C6.3987 14.663 6.46443 14.6787 6.52987 14.6723C6.59531 14.6658 6.65636 14.6378 6.70246 14.5929L7.69865 13.6427C7.77824 13.8061 7.88821 13.9542 8.02319 14.08C8.15468 14.2079 8.30843 14.3129 8.47755 14.3904L7.47571 15.3406ZM16.7124 10.4034C16.6972 10.4153 16.6847 10.43 16.6757 10.4466C16.6757 10.4466 15.7839 11.6775 12.6288 12.2606C11.9967 12.3767 11.3787 12.7816 10.7804 13.173C9.71362 13.8721 9.03068 14.2744 8.42675 13.6967C7.82283 13.119 8.24332 12.4658 8.97424 11.4454C9.38344 10.8731 9.82086 10.282 9.9281 9.6773C10.2865 7.9011 10.8707 6.88073 11.2799 6.35165C11.6191 6.61551 12.0488 6.74921 12.4854 6.72676C12.922 6.70431 13.3343 6.5273 13.642 6.23018C13.9003 6.36975 14.1919 6.4432 14.4886 6.44343C14.8086 6.44236 15.1223 6.35817 15.3961 6.19985C15.67 6.04153 15.8938 5.81503 16.0436 5.54454C16.2172 5.66193 16.3797 5.79382 16.529 5.93865C17.909 7.26135 17.9908 9.18061 16.7124 10.4034Z" fill="#F38821"/>
</svg>
