<svg width="23" height="22" viewBox="0 0 23 22" fill="none" xmlns="http://www.w3.org/2000/svg">
<path d="M11.5 0C9.22552 0 7.00211 0.645139 5.11095 1.85383C3.21978 3.06253 1.7458 4.78049 0.87539 6.79048C0.0049827 8.80047 -0.222756 11.0122 0.220974 13.146C0.664704 15.2798 1.75997 17.2398 3.36828 18.7782C4.97658 20.3165 7.02568 21.3642 9.25646 21.7886C11.4872 22.2131 13.7995 21.9952 15.9009 21.1627C18.0022 20.3301 19.7983 18.9202 21.0619 17.1113C22.3255 15.3023 23 13.1756 23 11C22.9963 8.08371 21.7835 5.2879 19.6276 3.22577C17.4717 1.16364 14.5488 0.00357169 11.5 0ZM11.5 21.4601C9.33715 21.4601 7.22287 20.8466 5.42452 19.6973C3.62617 18.5479 2.22453 16.9142 1.39684 15.0029C0.569155 13.0916 0.352595 10.9884 0.774546 8.95933C1.1965 6.93026 2.23801 5.06645 3.76738 3.60358C5.29675 2.1407 7.24528 1.14447 9.36658 0.740866C11.4879 0.33726 13.6867 0.544405 15.6849 1.33611C17.6831 2.12781 19.391 3.46851 20.5926 5.18867C21.7942 6.90882 22.4356 8.93118 22.4356 11C22.4326 13.7733 21.2795 16.4322 19.2293 18.3933C17.1792 20.3543 14.3994 21.4573 11.5 21.4601ZM12.6514 10.2442C12.9832 10.1257 13.2692 9.91303 13.471 9.63462C13.6728 9.3562 13.7807 9.0254 13.7802 8.68662C13.7791 8.34755 13.6706 8.01675 13.4691 7.73777C13.2676 7.45879 12.9826 7.2447 12.6514 7.12368C12.6523 6.76419 12.5668 6.40931 12.4013 6.08652C12.2359 5.76373 11.995 5.48168 11.6974 5.2622C11.3997 5.04272 11.0532 4.8917 10.6848 4.82083C10.3163 4.74996 9.93574 4.76114 9.57252 4.8535C9.29553 4.5052 8.92232 4.23787 8.49497 4.08164C8.06761 3.92541 7.60313 3.88649 7.15389 3.96929C6.70465 4.05209 6.28854 4.2533 5.95247 4.55024C5.61641 4.84717 5.37376 5.22801 5.25191 5.64981C4.96676 5.68018 4.69388 5.77747 4.45753 5.93304C4.22117 6.08861 4.02867 6.29763 3.89713 6.54152C3.7656 6.78541 3.6991 7.05661 3.70356 7.331C3.70802 7.6054 3.7833 7.8745 3.9227 8.11435C3.63465 8.46031 3.45458 8.87704 3.40322 9.31658C3.35187 9.75611 3.43131 10.2006 3.63241 10.5988C3.83351 10.9971 4.14809 11.3329 4.53994 11.5677C4.9318 11.8025 5.38499 11.9266 5.84737 11.9259H5.85583C6.07517 12.2236 6.39035 12.4445 6.75326 12.5548C7.11124 13.1128 7.4019 13.7077 7.61964 14.3283C7.87901 15.1701 7.97466 16.0503 7.90184 16.9251C7.89645 16.9887 7.91474 17.052 7.95349 17.1039C7.99222 17.1558 8.04891 17.1929 8.1135 17.2086C8.51491 17.3111 8.92846 17.3638 9.34393 17.3652C9.89301 17.3827 10.4358 17.2487 10.9074 16.9791C10.9532 16.9505 10.9893 16.9098 11.0114 16.8618C11.0334 16.8139 11.0404 16.7609 11.0315 16.7092L10.6929 14.2123C10.6929 14.026 10.7296 12.1715 11.7794 11.5318C12.0217 11.3994 12.2273 11.2134 12.379 10.9894C12.5307 10.7653 12.6241 10.5098 12.6514 10.2442ZM6.26221 11.5021L6.17191 11.3482L5.99129 11.3644C5.93767 11.3644 5.88688 11.3644 5.83326 11.3644C5.33127 11.3637 4.85005 11.1726 4.49509 10.8331C4.14013 10.4936 3.94038 10.0333 3.93964 9.55313C3.9384 9.08583 4.12773 8.6365 4.46737 8.30061L4.63105 8.13595L4.48712 7.95239C4.35705 7.78526 4.27802 7.58687 4.25885 7.37932C4.23968 7.17176 4.28111 6.9632 4.37852 6.77683C4.47594 6.59047 4.62552 6.43363 4.81061 6.32377C4.99571 6.21391 5.20905 6.15535 5.42688 6.1546H5.70908L5.75142 5.92515C5.81872 5.56582 5.99812 5.23438 6.26605 4.97441C6.53397 4.71444 6.87787 4.53811 7.25254 4.46859C7.6272 4.39908 8.01508 4.43964 8.36519 4.58495C8.7153 4.73025 9.01124 4.97349 9.21411 5.2827L9.33546 5.46626L9.54712 5.39067C9.75285 5.32068 9.96939 5.28418 10.1877 5.2827C10.6897 5.28769 11.1692 5.48286 11.521 5.82543C11.8727 6.16799 12.0682 6.63001 12.0644 7.11018C12.0686 7.1722 12.0686 7.23442 12.0644 7.29644L12.039 7.53668L12.2874 7.58797C12.5486 7.64079 12.7831 7.77718 12.9524 7.97464C13.1216 8.17211 13.2155 8.41885 13.2184 8.67419C13.2214 8.92952 13.1333 9.1782 12.9687 9.3792C12.804 9.58021 12.5727 9.72153 12.3128 9.77987L12.0926 9.83116V10.0822C12.0913 10.2501 12.0511 10.4156 11.9748 10.5668C11.8985 10.718 11.788 10.851 11.6514 10.9564C11.5148 11.0618 11.3554 11.1368 11.1847 11.1761C11.0141 11.2154 10.8365 11.2179 10.6647 11.1836L10.4925 11.1458L10.3825 11.2807C10.2864 11.3983 10.1669 11.4963 10.0309 11.5693C9.89484 11.6422 9.74501 11.6886 9.59009 11.7057C9.43516 11.7228 9.27824 11.7102 9.12842 11.6688C8.97861 11.6273 8.83891 11.5578 8.71743 11.4643L8.46908 11.2699L8.29976 11.5399C8.19463 11.7106 8.04403 11.8517 7.86332 11.9486C7.68261 12.0455 7.47826 12.0948 7.27112 12.0915C7.06398 12.0882 6.86145 12.0324 6.68421 11.9298C6.50697 11.8272 6.36135 11.6815 6.26221 11.5075V11.5021ZM9.24233 12.239L8.93473 13.0029L8.58479 12.0798L8.61301 12.0501C8.8082 12.151 9.02185 12.2152 9.24233 12.239ZM10.1285 14.2393C10.1271 14.25 10.1271 14.2609 10.1285 14.2717L10.453 16.6039C9.78982 16.9251 8.90368 16.8118 8.4973 16.7335C8.54207 15.8612 8.42845 14.9881 8.16148 14.1529C7.97787 13.6223 7.74359 13.1091 7.4616 12.6196C7.69071 12.5984 7.9132 12.5342 8.11632 12.4307L8.51988 13.5401C8.5346 13.5806 8.55916 13.6171 8.59155 13.6467C8.62394 13.6762 8.66321 13.698 8.70614 13.7102C8.73232 13.7141 8.75898 13.7141 8.78516 13.7102C8.84718 13.7108 8.90768 13.6918 8.9573 13.6562L9.33264 13.3863C9.37264 13.3556 9.40374 13.3156 9.42295 13.2702L9.8519 12.2093C10.1826 12.1359 10.4837 11.9717 10.7183 11.7369H10.7973C10.1228 12.7411 10.1256 14.1583 10.1285 14.2393ZM17.1837 12.0798C16.6106 11.958 16.0105 12.0487 15.5045 12.3335C14.9945 12.0458 14.3889 11.955 13.8113 12.0798C13.2299 12.2309 12.7671 12.6547 12.4369 13.3377C12.2056 13.7968 12.1017 14.3053 12.1354 14.814C12.169 15.3227 12.3389 15.8145 12.6288 16.2422C12.8622 16.6216 13.191 16.9394 13.5852 17.1666C13.9794 17.3938 14.4267 17.5233 14.8865 17.5433H16.1056C16.5626 17.5209 17.0065 17.3902 17.3976 17.1631C17.7887 16.936 18.1147 16.6196 18.3464 16.2422C18.6385 15.8163 18.8111 15.3256 18.8477 14.8174C18.8843 14.3092 18.7836 13.8006 18.5552 13.3404C18.2166 12.6574 17.7566 12.2336 17.1724 12.0798H17.1837ZM17.8807 15.9507C17.6969 16.2493 17.4402 16.5008 17.1325 16.6836C16.8248 16.8665 16.4754 16.9753 16.1141 17.0007H14.8865C14.5251 16.9744 14.1756 16.8653 13.8677 16.6825C13.5597 16.4997 13.3022 16.2487 13.1171 15.9507C12.8788 15.5995 12.7386 15.1957 12.7099 14.778C12.6813 14.3602 12.7651 13.9424 12.9534 13.5644C13.2074 13.0245 13.5488 12.7087 13.958 12.6007C14.0694 12.572 14.1842 12.5575 14.2995 12.5575C14.6672 12.5728 15.0242 12.6798 15.3352 12.868C15.3822 12.8987 15.4378 12.9152 15.4947 12.9152C15.5516 12.9152 15.6072 12.8987 15.6541 12.868C15.6541 12.868 16.354 12.4199 17.0313 12.598C17.4433 12.706 17.782 13.0299 18.036 13.5617C18.2249 13.9406 18.3088 14.3595 18.2796 14.7784C18.2505 15.1972 18.1092 15.6018 17.8694 15.9534L17.8807 15.9507ZM15.3409 11.6505H15.3606C16.0153 11.6074 16.4556 11.3806 16.6701 11.0135C17.0341 10.3656 16.5431 9.51803 16.5205 9.48294C16.4925 9.43662 16.4507 9.39931 16.4004 9.37576C16.3502 9.3522 16.2937 9.34347 16.2383 9.35067C16.036 9.37735 15.8421 9.44571 15.6701 9.55103C15.4981 9.65636 15.3521 9.79615 15.2421 9.96073C14.8357 10.587 15.0756 11.4184 15.0841 11.4535C15.098 11.5052 15.1278 11.5518 15.1695 11.5874C15.2112 11.6229 15.263 11.6459 15.3183 11.6532L15.3409 11.6505ZM15.7077 10.2442C15.8038 10.0985 15.9493 9.98894 16.1198 9.93374C16.1856 10.0611 16.2241 10.1999 16.2328 10.3418C16.2415 10.4837 16.2204 10.6258 16.1706 10.7598C16.1026 10.8539 16.0132 10.9319 15.9091 10.988C15.8049 11.0442 15.6888 11.0769 15.5694 11.0837C15.5135 10.8001 15.554 10.5068 15.6852 10.2469L15.7077 10.2442Z" fill="#F38821"/>
</svg>
