<svg width="23" height="22" viewBox="0 0 23 22" fill="none" xmlns="http://www.w3.org/2000/svg">
<path d="M11.5 0C9.22552 0 7.00211 0.645139 5.11095 1.85383C3.21978 3.06253 1.7458 4.78049 0.87539 6.79048C0.0049827 8.80047 -0.222756 11.0122 0.220974 13.146C0.664704 15.2798 1.75997 17.2398 3.36828 18.7782C4.97658 20.3165 7.02568 21.3642 9.25646 21.7886C11.4872 22.2131 13.7995 21.9952 15.9009 21.1627C18.0022 20.3301 19.7983 18.9202 21.0619 17.1113C22.3255 15.3023 23 13.1756 23 11C22.9963 8.08371 21.7835 5.2879 19.6276 3.22577C17.4717 1.16364 14.5488 0.00357169 11.5 0ZM11.5 21.4601C9.33715 21.4601 7.22287 20.8466 5.42452 19.6973C3.62617 18.5479 2.22453 16.9142 1.39684 15.0029C0.569155 13.0916 0.352595 10.9884 0.774546 8.95933C1.1965 6.93026 2.23801 5.06645 3.76738 3.60358C5.29675 2.1407 7.24528 1.14447 9.36658 0.740866C11.4879 0.33726 13.6867 0.544405 15.6849 1.33611C17.6831 2.12781 19.391 3.46851 20.5926 5.18867C21.7942 6.90882 22.4356 8.93118 22.4356 11C22.4326 13.7733 21.2795 16.4322 19.2293 18.3933C17.1792 20.3543 14.3994 21.4573 11.5 21.4601ZM10.549 7.84981C10.9864 7.4692 11.8499 6.62429 11.7766 5.99264C11.7649 5.88365 11.7249 5.77918 11.6604 5.68868C11.5958 5.59819 11.5087 5.52452 11.4069 5.47435C11.2627 5.37711 11.0842 5.3383 10.9102 5.36638C10.9271 4.8508 10.7719 4.24613 10.1482 3.98969C10.1279 3.97796 10.1061 3.96888 10.0833 3.9627L10.0353 3.9492C10.0111 3.94527 9.98625 3.94527 9.96197 3.9492C9.29595 3.84123 8.83313 4.27043 8.55092 4.71043C8.41968 4.59763 8.24745 4.53852 8.07117 4.54577C7.95706 4.53516 7.84199 4.55209 7.73649 4.595C7.63099 4.63791 7.53842 4.70544 7.46724 4.79141C7.0524 5.28 7.29227 6.41104 7.44467 6.97251C7.22281 6.9752 7.00422 7.02401 6.80405 7.11558C6.70141 7.16529 6.61043 7.2345 6.53667 7.31897C6.46292 7.40344 6.40794 7.5014 6.3751 7.60687C6.35252 7.68515 4.48712 15.6186 5.84172 16.8469C5.86209 16.8788 5.88916 16.9063 5.92122 16.9277C5.95328 16.949 5.98964 16.9638 6.02798 16.971H6.04209H6.0562C6.08497 16.9818 6.11561 16.9873 6.14651 16.9872C6.18339 16.9868 6.21982 16.9795 6.25375 16.9656C8.08528 16.6957 11.0344 8.99435 11.0513 8.91337C11.0834 8.80786 11.0926 8.6972 11.0786 8.58814C11.0645 8.47909 11.0274 8.37391 10.9695 8.27902C10.8617 8.10978 10.7185 7.96366 10.549 7.84981ZM7.89902 5.11804C7.91596 5.09914 7.94418 5.06675 8.04577 5.07485H8.1135C8.17559 5.07485 8.26307 5.14503 8.31669 5.34478C8.3321 5.40192 8.36666 5.45265 8.41508 5.48921C8.4635 5.52578 8.52311 5.54616 8.58479 5.54724C8.64704 5.54996 8.70848 5.53291 8.75953 5.49872C8.81058 5.46454 8.84837 5.41516 8.867 5.35828C8.867 5.31509 9.20283 4.33521 9.91964 4.47018C10.5913 4.72393 10.3147 5.7173 10.3034 5.76049C10.287 5.81695 10.2903 5.87698 10.3127 5.93152C10.3351 5.98606 10.3754 6.03215 10.4276 6.06282C10.4801 6.09341 10.5415 6.1068 10.6026 6.10095C10.6637 6.0951 10.7212 6.07034 10.7663 6.03043C10.9299 5.88736 11.0485 5.87386 11.0823 5.89546C11.0993 5.91045 11.1183 5.92316 11.1388 5.93325C11.2291 5.97914 11.2347 6.01963 11.2375 6.04662C11.2742 6.38135 10.5744 7.12638 10.0579 7.55828C9.81957 7.45133 9.57339 7.36111 9.32135 7.28834L9.60356 6.40564C9.62452 6.33691 9.61607 6.26304 9.58008 6.20026C9.5441 6.13749 9.48351 6.09096 9.41166 6.07092C9.33981 6.05087 9.26257 6.05895 9.19695 6.09337C9.13132 6.1278 9.08268 6.18575 9.06172 6.25448L8.77951 7.13718C8.54161 7.07246 8.29926 7.02375 8.05424 6.99141C7.83129 6.36245 7.6789 5.37988 7.89902 5.11804ZM10.5123 8.75951C10.1626 9.74607 9.75751 10.7139 9.29878 11.6586L8.3816 11.3887C8.30975 11.3683 8.23236 11.376 8.16647 11.4102C8.10058 11.4444 8.05158 11.5022 8.03025 11.5709C8.00892 11.6396 8.017 11.7137 8.05273 11.7767C8.08845 11.8397 8.14889 11.8866 8.22074 11.907L9.06737 12.1445C8.07964 14.1772 6.85767 16.3151 6.20295 16.415C5.83326 16.0964 5.84454 14.6469 6.00823 13.0056L6.82663 13.2351C6.85281 13.239 6.87947 13.239 6.90565 13.2351C6.98049 13.2451 7.05644 13.2263 7.11677 13.1827C7.17711 13.1392 7.21689 13.0745 7.22737 13.0029C7.23784 12.9313 7.21816 12.8587 7.17265 12.801C7.12713 12.7433 7.05951 12.7052 6.98467 12.6952L6.06749 12.4253C6.18037 11.4535 6.3497 10.452 6.49362 9.60172L7.28381 9.82576C7.31009 9.8282 7.33655 9.8282 7.36283 9.82576C7.39989 9.8309 7.43764 9.82901 7.47394 9.8202C7.51023 9.81138 7.54436 9.79581 7.57436 9.77438C7.60437 9.75295 7.62967 9.72607 7.64881 9.69529C7.66796 9.66451 7.68058 9.63042 7.68596 9.59497C7.69133 9.55952 7.68935 9.5234 7.68013 9.48869C7.67091 9.45397 7.65464 9.42133 7.63223 9.39263C7.60983 9.36393 7.58173 9.33973 7.54955 9.32141C7.51736 9.3031 7.48173 9.29103 7.44467 9.28589L6.59804 9.04564C6.71657 8.44908 6.82945 7.96589 6.91694 7.69595C6.9275 7.65959 6.9464 7.62595 6.97228 7.59746C6.99815 7.56897 7.03034 7.54637 7.06651 7.53129C7.22189 7.48209 7.38712 7.46822 7.54908 7.4908C8.00179 7.50841 8.44947 7.58842 8.87829 7.72834C9.53583 7.893 10.2893 8.20613 10.4812 8.53816C10.5018 8.57011 10.5152 8.60582 10.5206 8.643C10.5259 8.68019 10.5231 8.71803 10.5123 8.75411V8.75951ZM16.5882 7.67975C16.3661 7.24312 16.0122 6.88018 15.5723 6.63779L15.513 5.82797C15.5105 5.79249 15.5007 5.75784 15.4841 5.726C15.4676 5.69415 15.4446 5.66575 15.4166 5.64243C15.3885 5.6191 15.3559 5.6013 15.3206 5.59006C15.2854 5.57882 15.2481 5.57436 15.211 5.57693L13.6025 5.68491C13.528 5.69043 13.459 5.72392 13.4103 5.77805C13.3616 5.83218 13.3374 5.90254 13.3428 5.97374L13.4021 6.78356C13.0284 7.08878 12.7771 7.50856 12.6909 7.97129C12.6288 8.30061 12.5696 8.57055 12.5357 8.8081C12.4482 9.38846 12.4172 9.58282 12.0475 9.82037C11.8415 9.95264 11.7653 10.0903 11.7879 10.2658C11.8063 10.3368 11.8471 10.4006 11.9046 10.4489C11.9621 10.4971 12.0336 10.5274 12.1096 10.5357C12.3192 10.564 12.5328 10.5492 12.7361 10.4925C12.6776 11.1526 12.454 11.7896 12.0842 12.3497C10.8763 14.0098 10.9553 16.253 12.2366 17.4596C12.6793 17.8543 13.2655 18.0683 13.8706 18.0562C14.1389 18.0557 14.4058 18.0194 14.6636 17.9482C15.846 17.6189 16.7209 16.6687 17.0595 15.319C17.5123 13.5605 17.4792 11.7195 16.9636 9.97693C17.2506 10.0498 17.5501 10.0663 17.8441 10.0255C17.8934 10.0157 17.939 9.99351 17.9764 9.96115C18.0137 9.92878 18.0412 9.88745 18.0562 9.84145C18.0712 9.79546 18.073 9.74646 18.0615 9.69956C18.05 9.65266 18.0256 9.60955 17.9908 9.57472C17.4281 9.00685 16.953 8.36513 16.5798 7.66896L16.5882 7.67975ZM16.512 15.2137C16.2298 16.3556 15.4904 17.1654 14.5083 17.438C14.1888 17.5391 13.8472 17.5584 13.5175 17.494C13.1877 17.4296 12.8813 17.2837 12.6288 17.0709C11.6665 16.1693 11.3702 14.2717 12.547 12.6547C13.0143 11.9431 13.2843 11.1292 13.3315 10.2901C13.6581 10.1309 13.9554 9.92216 14.212 9.6719L14.6043 10.8731C14.6227 10.9272 14.6586 10.9744 14.7068 11.0079C14.7549 11.0413 14.8129 11.0593 14.8724 11.0594C14.9332 11.0579 14.9919 11.0376 15.0397 11.0016C15.0875 10.9656 15.1219 10.9158 15.1377 10.8596L15.5525 9.36147C15.7889 9.51866 16.0392 9.65594 16.3004 9.77178C16.8895 11.5295 16.9627 13.4082 16.512 15.2029V15.2137ZM15.5836 8.70012C15.5476 8.67054 15.5045 8.65008 15.4581 8.64065C15.4118 8.63121 15.3637 8.6331 15.3183 8.64613C15.2721 8.65933 15.2302 8.68362 15.1966 8.7167C15.163 8.74978 15.1388 8.79054 15.1264 8.83509L14.8442 9.82306L14.6043 9.04024C14.5884 8.993 14.5591 8.95087 14.5198 8.91848C14.4805 8.8861 14.4326 8.86472 14.3814 8.85669C14.3284 8.84705 14.2738 8.85209 14.2238 8.87123C14.1737 8.89036 14.1305 8.92278 14.0991 8.96466C13.7638 9.41514 13.292 9.75624 12.7474 9.94184C12.9611 9.62652 13.082 9.2619 13.0973 8.88638C13.1312 8.65423 13.1735 8.39509 13.2441 8.07656C13.3101 7.69529 13.53 7.35406 13.8564 7.12638C13.8971 7.09959 13.9298 7.06304 13.951 7.02041C13.9723 6.97778 13.9816 6.93055 13.9778 6.88343L13.927 6.18969L14.9712 6.11951L15.0248 6.82135C15.028 6.87048 15.0453 6.91783 15.0746 6.95827C15.104 6.99871 15.1443 7.03071 15.1913 7.0508C15.5871 7.23403 15.9049 7.54188 16.0915 7.9227C16.391 8.47205 16.7434 8.99349 17.1442 9.48024C16.5721 9.32885 16.0401 9.06294 15.5836 8.70012Z" fill="#F38821"/>
</svg>
