<svg width="33" height="41" viewBox="0 0 33 41" fill="none" xmlns="http://www.w3.org/2000/svg">
<g clip-path="url(#clip0_235_1263)">
<path fill-rule="evenodd" clip-rule="evenodd" d="M16.6447 13.9177C16.5377 11.5632 16.5377 9.42276 16.6447 7.60336C16.5377 7.49634 16.4307 7.49634 16.4307 7.49634C15.5745 7.49634 15.0394 11.4562 15.1464 16.2723C15.2534 16.8074 15.2534 17.4495 15.2534 17.9846C15.8955 18.3057 16.0026 18.7338 15.8955 19.2689C15.8955 20.9813 15.6815 22.6937 15.4675 24.192C15.0394 26.8676 17.6079 27.0816 17.2869 24.192C16.7517 20.8743 16.7517 17.3425 16.6447 13.9177ZM16.1096 7.81741C15.1464 10.1719 15.4675 17.7706 15.4675 17.8776L15.6815 17.9846C15.5745 15.309 15.5745 10.6 16.1096 7.81741ZM15.7885 23.2288C15.4675 24.5131 15.3604 25.7973 16.3236 26.2254C15.3604 25.5833 15.7885 23.7639 15.7885 23.2288Z" fill="black"/>
<path fill-rule="evenodd" clip-rule="evenodd" d="M12.1493 13.2756C12.0423 16.7004 11.9353 20.6602 11.4002 23.9779C10.9721 26.9746 13.9687 27.1886 13.4336 23.9779C13.0055 20.5532 12.8985 16.7004 12.8985 13.2756C13.4336 13.0616 13.8617 12.6335 13.8617 11.8843L13.6477 8.13848C13.6477 7.81741 13.6477 7.49634 13.3266 7.49634V11.7773C13.3266 11.8843 13.0055 11.8843 13.0055 11.7773L12.8985 7.49634C12.8985 7.49634 12.7915 7.49634 12.6845 7.49634V11.7773C12.6845 11.8843 12.2564 11.8843 12.2564 11.7773V7.49634C12.1493 7.49634 12.0423 7.49634 11.9353 7.49634V11.7773C11.9353 11.8843 11.6142 11.8843 11.6142 11.7773V7.49634C11.2931 7.49634 11.2931 7.81741 11.2931 8.13848L11.0791 11.8843C11.0791 12.6335 11.5072 13.1686 12.1493 13.2756ZM13.7547 12.2054C13.2196 13.0616 11.7212 13.0616 11.1861 12.2054C11.7212 13.3826 13.2196 13.3826 13.7547 12.2054ZM11.7212 22.8007C11.4002 24.299 11.2931 25.7973 12.3634 26.2254C11.2931 25.4763 11.7212 23.4428 11.7212 22.8007Z" fill="black"/>
<path fill-rule="evenodd" clip-rule="evenodd" d="M20.4973 14.0248C21.4605 13.8107 22.2096 12.8475 22.2096 11.5632C22.2096 10.1719 21.2464 7.49634 20.0692 7.49634C18.8919 7.49634 18.0357 10.1719 17.9287 11.5632C17.9287 12.7405 18.6779 13.8107 19.7481 14.0248C19.6411 17.4495 19.5341 20.6602 18.9989 23.9779C18.5709 26.9746 21.4605 27.1886 21.0324 24.085C20.4973 20.6602 20.4973 17.4495 20.4973 14.0248ZM19.32 22.9077C18.9989 24.406 18.8919 25.7973 19.9622 26.2254C18.8919 25.4763 19.32 23.5498 19.32 22.9077ZM19.106 8.56657C17.9287 10.1719 17.6076 13.0616 19.5341 13.8107C18.1428 12.9545 18.2498 10.2789 19.106 8.56657Z" fill="black"/>
<path d="M16.6443 0.86084C25.4203 0.86084 32.5908 8.03141 32.5908 16.9144C32.5908 25.6903 25.4203 32.8608 16.6443 32.8608C7.76139 32.8608 0.59082 25.6903 0.59082 16.9144C0.59082 8.03141 7.76139 0.86084 16.6443 0.86084ZM16.6443 1.61C8.18948 1.61 1.33998 8.4595 1.33998 16.9144C1.33998 25.2622 8.18948 32.1117 16.6443 32.1117C24.9922 32.1117 31.8417 25.2622 31.8417 16.9144C31.8417 8.4595 24.9922 1.61 16.6443 1.61Z" fill="black"/>
<path d="M16.644 4.17847C23.7075 4.17847 29.3798 9.85071 29.3798 16.9143C29.3798 23.9778 23.7075 29.65 16.644 29.65C9.58044 29.65 3.9082 23.9778 3.9082 16.9143C3.9082 9.85071 9.58044 4.17847 16.644 4.17847ZM16.644 4.49954C9.79449 4.49954 4.22927 10.0648 4.22927 16.9143C4.22927 23.7638 9.79449 29.2219 16.644 29.2219C23.4935 29.2219 28.9517 23.7638 28.9517 16.9143C28.9517 10.0648 23.4935 4.49954 16.644 4.49954Z" fill="black"/>
</g>
<defs>
<clipPath id="clip0_235_1263">
<rect width="32" height="40" fill="white" transform="translate(0.59082 0.86084)"/>
</clipPath>
</defs>
</svg>
