<svg width="42" height="52" viewBox="0 0 42 52" fill="none" xmlns="http://www.w3.org/2000/svg">
<path d="M5.50161 38.5465H34.301C35.2022 38.5454 36.0662 38.1906 36.7039 37.5598C37.3415 36.929 37.7008 36.0737 37.703 35.1811V30.7839C37.71 30.7002 37.6994 30.616 37.6719 30.5366C37.6444 30.4571 37.6005 30.3842 37.5431 30.3224C37.4856 30.2606 37.4159 30.2113 37.3382 30.1775C37.2606 30.1438 37.1767 30.1264 37.0919 30.1264C37.0071 30.1264 36.9232 30.1438 36.8456 30.1775C36.7679 30.2113 36.6982 30.2606 36.6407 30.3224C36.5833 30.3842 36.5394 30.4571 36.5119 30.5366C36.4844 30.616 36.4738 30.7002 36.4808 30.7839V35.1811C36.4797 35.7533 36.2497 36.3019 35.8411 36.7065C35.4326 37.1112 34.8788 37.339 34.301 37.3401H5.50161C4.9231 37.3401 4.36823 37.1128 3.95877 36.708C3.54931 36.3032 3.31872 35.7541 3.31761 35.1811V14.2188C3.31983 13.6465 3.55091 13.0985 3.96025 12.6946C4.36959 12.2907 4.92383 12.0639 5.50161 12.0639H34.301C34.8788 12.065 35.4326 12.2929 35.8411 12.6975C36.2497 13.1022 36.4797 13.6507 36.4808 14.223V18.4537C36.4935 18.6056 36.5634 18.7471 36.6766 18.8503C36.7898 18.9536 36.9381 19.0108 37.0919 19.0108C37.2458 19.0108 37.394 18.9536 37.5072 18.8503C37.6204 18.7471 37.6903 18.6056 37.703 18.4537V14.2188C37.7008 13.3262 37.3415 12.4708 36.7039 11.8401C36.0662 11.2093 35.2022 10.8545 34.301 10.8534H33.8054L32.6168 5.77402C32.3854 4.85393 31.7955 4.06207 30.9761 3.5717C30.1567 3.08133 29.1746 2.93236 28.2446 3.15738L9.29421 7.79578C7.39581 8.2617 6.42561 9.35994 6.56001 10.8534H5.50161C4.60007 10.8534 3.73539 11.2078 3.09752 11.8388C2.45964 12.4699 2.10072 13.3259 2.09961 14.2188V35.1811C2.10072 36.074 2.45964 36.93 3.09752 37.561C3.73539 38.1921 4.60007 38.5465 5.50161 38.5465ZM9.58821 8.9689L28.5596 4.3305C29.1743 4.18193 29.8235 4.28001 30.3655 4.60339C30.9075 4.92676 31.2986 5.44921 31.4534 6.0569L32.5748 10.8534H7.79481C7.68981 10.3209 7.76121 9.41818 9.58821 8.9689Z" fill="black"/>
<path d="M38.0398 20.355H24.9358C24.4423 20.355 23.9691 20.5491 23.6202 20.8947C23.2712 21.2404 23.0752 21.7091 23.0752 22.1979V27.1899C23.0752 27.6786 23.2712 28.1474 23.6202 28.493C23.9691 28.8386 24.4423 29.0327 24.9358 29.0327H38.0398C38.5307 29.0317 39.0015 28.8389 39.3498 28.4962C39.6981 28.1535 39.896 27.6886 39.9004 27.2023V22.2103C39.9021 21.9673 39.8552 21.7263 39.7624 21.5013C39.6696 21.2762 39.5329 21.0716 39.3599 20.8992C39.187 20.7267 38.9813 20.5898 38.7547 20.4964C38.5282 20.4031 38.2852 20.355 38.0398 20.355ZM38.6824 27.2023C38.6813 27.3708 38.6132 27.5321 38.493 27.6512C38.3727 27.7703 38.2099 27.8377 38.0398 27.8388H24.9358C24.7657 27.8377 24.6029 27.7703 24.4826 27.6512C24.3624 27.5321 24.2943 27.3708 24.2932 27.2023V22.2103C24.2943 22.0419 24.3624 21.8806 24.4826 21.7615C24.6029 21.6424 24.7657 21.575 24.9358 21.5739H38.0398C38.2099 21.575 38.3727 21.6424 38.493 21.7615C38.6132 21.8806 38.6813 22.0419 38.6824 22.2103V27.2023Z" fill="black"/>
<path d="M28.0938 22.855C27.7296 22.8542 27.3734 22.9604 27.0702 23.1603C26.767 23.3602 26.5306 23.6448 26.3908 23.9779C26.2511 24.311 26.2143 24.6777 26.2851 25.0315C26.356 25.3853 26.5313 25.7104 26.7888 25.9655C27.0463 26.2205 27.3745 26.3942 27.7317 26.4643C28.089 26.5345 28.4592 26.4981 28.7955 26.3596C29.1318 26.2212 29.4191 25.987 29.6209 25.6868C29.8227 25.3865 29.93 25.0336 29.9292 24.6729C29.9281 24.1911 29.7344 23.7293 29.3904 23.3887C29.0464 23.048 28.5802 22.8561 28.0938 22.855ZM28.0938 25.2844C27.9717 25.2844 27.8523 25.2486 27.7508 25.1814C27.6493 25.1142 27.5701 25.0187 27.5234 24.9069C27.4767 24.7952 27.4644 24.6722 27.4883 24.5536C27.5121 24.435 27.5709 24.326 27.6572 24.2405C27.7436 24.155 27.8536 24.0967 27.9733 24.0731C28.0931 24.0495 28.2172 24.0617 28.3301 24.1079C28.4429 24.1542 28.5393 24.2326 28.6071 24.3332C28.675 24.4337 28.7112 24.552 28.7112 24.6729C28.7112 24.8351 28.6461 24.9906 28.5304 25.1053C28.4146 25.22 28.2575 25.2844 28.0938 25.2844Z" fill="black"/>
<path d="M7.16133 25.5631C7.16243 25.7194 7.22562 25.869 7.33723 25.9796C7.44884 26.0901 7.5999 26.1527 7.75773 26.1538H9.01773C9.43773 28.9701 11.2227 30.5759 13.9737 30.5759C16.1871 30.5759 17.9721 29.0284 17.9721 27.7512C17.9791 27.6698 17.9688 27.5878 17.9421 27.5104C17.9154 27.4331 17.8727 27.3621 17.8169 27.3019C17.761 27.2417 17.6931 27.1937 17.6176 27.1608C17.542 27.128 17.4604 27.111 17.3778 27.111C17.2953 27.111 17.2137 27.128 17.1381 27.1608C17.0625 27.1937 16.9947 27.2417 16.9388 27.3019C16.8829 27.3621 16.8403 27.4331 16.8136 27.5104C16.7868 27.5878 16.7766 27.6698 16.7835 27.7512C16.6807 28.1434 16.4335 28.4832 16.0905 28.7039C15.4864 29.1569 14.7482 29.3996 13.9905 29.3944C12.5037 29.3944 10.6893 28.8162 10.2357 26.1496H14.7297C14.812 26.1565 14.8948 26.1464 14.9729 26.1199C15.0509 26.0934 15.1226 26.0512 15.1834 25.9959C15.2441 25.9405 15.2927 25.8733 15.3258 25.7985C15.359 25.7236 15.3761 25.6428 15.3761 25.561C15.3761 25.4793 15.359 25.3984 15.3258 25.3235C15.2927 25.2487 15.2441 25.1815 15.1834 25.1261C15.1226 25.0708 15.0509 25.0286 14.9729 25.0021C14.8948 24.9756 14.812 24.9655 14.7297 24.9724H10.1097V24.2236H14.7297C14.812 24.2304 14.8948 24.2203 14.9729 24.1938C15.0509 24.1674 15.1226 24.1251 15.1834 24.0698C15.2441 24.0145 15.2927 23.9472 15.3258 23.8724C15.359 23.7975 15.3761 23.7167 15.3761 23.6349C15.3761 23.5532 15.359 23.4723 15.3258 23.3975C15.2927 23.3226 15.2441 23.2554 15.1834 23.2001C15.1226 23.1447 15.0509 23.1025 14.9729 23.076C14.8948 23.0496 14.812 23.0394 14.7297 23.0463H10.1517C10.3239 20.6293 12.1383 19.1941 13.8897 19.1941C15.8385 19.1941 16.7205 20.3423 16.7205 20.6917C16.7136 20.7732 16.7238 20.8552 16.7506 20.9325C16.7773 21.0099 16.8199 21.0809 16.8758 21.1411C16.9317 21.2012 16.9995 21.2493 17.0751 21.2821C17.1507 21.315 17.2323 21.332 17.3148 21.332C17.3974 21.332 17.479 21.315 17.5546 21.2821C17.6301 21.2493 17.698 21.2012 17.7539 21.1411C17.8097 21.0809 17.8524 21.0099 17.8791 20.9325C17.9058 20.8552 17.9161 20.7732 17.9091 20.6917C17.9091 19.4437 16.1913 18.0168 13.8897 18.0168C11.5881 18.0168 9.13953 19.8972 8.96313 23.0504H7.75773C7.67549 23.0436 7.5927 23.0537 7.51462 23.0802C7.43653 23.1067 7.36483 23.1489 7.30408 23.2042C7.24332 23.2596 7.19482 23.3268 7.16164 23.4016C7.12846 23.4765 7.11133 23.5573 7.11133 23.6391C7.11133 23.7208 7.12846 23.8017 7.16164 23.8765C7.19482 23.9514 7.24332 24.0186 7.30408 24.0739C7.36483 24.1293 7.43653 24.1715 7.51462 24.198C7.5927 24.2245 7.67549 24.2346 7.75773 24.2277H8.93373V24.9599H7.75773C7.67834 24.9599 7.59974 24.9756 7.52655 25.006C7.45336 25.0365 7.38705 25.0811 7.3315 25.1373C7.27595 25.1935 7.23228 25.2601 7.20306 25.3332C7.17384 25.4063 7.15966 25.4845 7.16133 25.5631Z" fill="black"/>
</svg>
