<svg width="45" height="57" viewBox="0 0 45 57" fill="none" xmlns="http://www.w3.org/2000/svg">
<g clip-path="url(#clip0_235_1270)">
<path d="M16.3125 5.60889V10.5528H17.2292V6.54222H38.9592V40.8268H17.2292V23.0501H16.3125V41.7602H39.8759V5.60889H16.3125Z" fill="#F38821"/>
<path d="M18.2792 24.2739L25.624 29.0353L23.0899 20.7977L9.96594 3.30469L5.30469 6.94049L18.3076 24.2277L18.2792 24.2739ZM22.5036 22.0143L23.9983 26.876L19.3379 23.8539C19.5864 23.4717 20.0841 22.8226 20.5947 22.9285C21.3922 23.0928 22.0504 22.5738 22.5036 22.0143ZM6.58985 7.11362L9.79544 4.61415L22.1049 20.9783C21.763 21.5518 21.2593 22.1146 20.7748 22.0138C19.8366 21.8244 19.0973 22.5794 18.6752 23.1814L6.58985 7.11362Z" fill="#F38821"/>
<path d="M35.887 10.4932H20.3037V10.9598H35.887V10.4932Z" fill="#F38821"/>
<path d="M35.8867 16.0928H22.1367V16.5594H35.8867V16.0928Z" fill="#F38821"/>
<path d="M35.8866 21.6929H26.0137V22.1595H35.8866V21.6929Z" fill="#F38821"/>
<path d="M35.8863 27.2935H27.8467V27.7601H35.8863V27.2935Z" fill="#F38821"/>
<path d="M35.887 32.8933H20.3037V33.36H35.887V32.8933Z" fill="#F38821"/>
<path d="M35.887 38.4934H20.3037V38.9601H35.887V38.4934Z" fill="#F38821"/>
<g clip-path="url(#clip1_235_1270)">
<path d="M-518.714 -1180.69H574.107C594.601 -1180.69 611.159 -1164.01 611.159 -1143.36V573.978C611.159 594.628 594.601 611.312 574.107 611.312H-518.714C-539.209 611.312 -555.767 594.628 -555.767 573.978V-1143.36C-555.767 -1164.01 -539.093 -1180.69 -518.714 -1180.69ZM537.054 -1106.02H-481.662V536.645H536.938V-1106.02H537.054Z" fill="#F38821"/>
<g clip-path="url(#clip2_235_1270)">
<path d="M-519.872 -1150.35H572.949C593.444 -1150.35 610.001 -1133.67 610.001 -1113.02V604.312C610.001 624.962 593.444 641.645 572.949 641.645H-519.872C-540.367 641.645 -556.925 624.962 -556.925 604.312V-1113.02C-556.925 -1133.67 -540.251 -1150.35 -519.872 -1150.35ZM535.896 -1075.69H-482.82V566.978H535.78V-1075.69H535.896Z" fill="#F38821"/>
<path d="M-544.188 -1151.52H548.633C569.128 -1151.52 585.686 -1134.84 585.686 -1114.19V603.145C585.686 623.795 569.128 640.478 548.633 640.478H-544.188C-564.683 640.478 -581.241 623.795 -581.241 603.145V-1114.19C-581.241 -1134.84 -564.567 -1151.52 -544.188 -1151.52ZM511.58 -1076.86H-507.135V565.811H511.464V-1076.86H511.58Z" fill="#F38821"/>
</g>
</g>
</g>
<defs>
<clipPath id="clip0_235_1270">
<rect width="44" height="56" fill="white" transform="translate(0.59082 0.132568)"/>
</clipPath>
<clipPath id="clip1_235_1270">
<rect width="2371.37" height="2986.67" fill="white" transform="translate(-1157.99 -1479.36)"/>
</clipPath>
<clipPath id="clip2_235_1270">
<rect width="2371.37" height="2986.67" fill="white" transform="translate(-1159.15 -1449.02)"/>
</clipPath>
</defs>
</svg>
