<svg width="50" height="63" viewBox="0 0 50 63" fill="none" xmlns="http://www.w3.org/2000/svg">
<path d="M43.6707 23.4032L39.0772 21.6286C38.7322 20.2411 38.1887 18.9196 37.4592 17.6924L39.4627 13.1624C39.5682 12.924 39.5167 12.6453 39.3337 12.4603L37.6377 10.7508C37.4552 10.5663 37.1777 10.5139 36.9412 10.6207L32.4482 12.6408C31.2297 11.9049 29.9192 11.3576 28.5432 11.0098L26.7832 6.37908C26.6902 6.13564 26.4582 5.97437 26.1997 5.97437H23.8012C23.5422 5.97437 23.3102 6.13514 23.2177 6.37908L21.4577 11.0098C20.0817 11.3576 18.7707 11.9049 17.5527 12.6408L13.0597 10.6207C12.8232 10.5139 12.5462 10.5663 12.3632 10.7508L10.6672 12.4603C10.4842 12.6448 10.4327 12.924 10.5382 13.1624L12.5417 17.6924C11.8122 18.9196 11.2687 20.2411 10.9237 21.6286L6.33021 23.4032C6.08871 23.4964 5.92871 23.7303 5.92871 23.9914V26.409C5.92871 26.6701 6.08821 26.904 6.33021 26.9972L10.9237 28.7718C11.2687 30.1588 11.8117 31.4798 12.5417 32.708L10.5382 37.2375C10.4327 37.4759 10.4842 37.7546 10.6672 37.9396L12.3632 39.6496C12.5462 39.8341 12.8232 39.8865 13.0597 39.7797L17.5527 37.7596C18.7712 38.4955 20.0817 39.0428 21.4582 39.3906L23.2182 44.0208C23.3112 44.2643 23.5432 44.4255 23.8017 44.4255H26.2002C26.4592 44.4255 26.6912 44.2648 26.7837 44.0208L28.5437 39.3906C29.9197 39.0428 31.2307 38.4955 32.4492 37.7596L36.9422 39.7797C37.1787 39.8865 37.4562 39.8341 37.6387 39.6496L39.3347 37.9396C39.5177 37.7551 39.5692 37.4759 39.4637 37.2375L37.4602 32.708C38.1902 31.4798 38.7332 30.1588 39.0782 28.7718L43.6717 26.9972C43.9132 26.904 44.0732 26.6701 44.0732 26.409V23.9914C44.0717 23.7303 43.9122 23.4964 43.6707 23.4032ZM42.8217 25.9761L38.3217 27.7139C38.1267 27.789 37.9817 27.9573 37.9357 28.1635C37.6037 29.6417 37.0287 31.0413 36.2252 32.325C36.1137 32.5034 36.0977 32.7257 36.1832 32.9177L38.1462 37.3549L37.0582 38.4521L32.6562 36.4734C32.4657 36.3882 32.2447 36.4039 32.0682 36.5163C30.7952 37.3257 29.4062 37.9063 27.9397 38.2409C27.7357 38.2873 27.5687 38.4335 27.4937 38.6295L25.7697 43.165H24.2307L22.5067 38.6295C22.4317 38.433 22.2647 38.2868 22.0607 38.2409C20.5942 37.9063 19.2052 37.3262 17.9322 36.5163C17.7552 36.4039 17.5347 36.3882 17.3442 36.4734L12.9422 38.4521L11.8542 37.3549L13.8172 32.9177C13.9022 32.7257 13.8867 32.5034 13.7752 32.325C12.9717 31.0413 12.3962 29.6417 12.0647 28.1635C12.0187 27.9578 11.8737 27.7895 11.6787 27.7139L7.17871 25.9761V24.4248L11.6787 22.687C11.8737 22.6119 12.0187 22.4436 12.0647 22.2374C12.3967 20.7587 12.9722 19.3586 13.7752 18.0759C13.8867 17.8975 13.9027 17.6752 13.8172 17.4832L11.8542 13.0455L12.9422 11.9488L17.3442 13.9275C17.5347 14.0132 17.7557 13.9965 17.9322 13.8851C19.2052 13.0752 20.5942 12.4946 22.0607 12.16C22.2647 12.1136 22.4317 11.9674 22.5067 11.7714L24.2307 7.23537H25.7697L27.4937 11.7714C27.5687 11.9679 27.7357 12.1141 27.9397 12.16C29.4062 12.4946 30.7952 13.0747 32.0682 13.8851C32.2447 13.9965 32.4652 14.0132 32.6562 13.9275L37.0582 11.9488L38.1462 13.0455L36.1832 17.4832C36.0982 17.6752 36.1137 17.8975 36.2252 18.0759C37.0282 19.3586 37.6042 20.7587 37.9357 22.2374C37.9817 22.4431 38.1267 22.6114 38.3217 22.687L42.8217 24.4248V25.9761Z" fill="#F38821"/>
<path d="M25.0003 15.5273C19.7088 15.5273 15.4043 19.8663 15.4043 25.2001C15.4043 30.5334 19.7088 34.8724 25.0003 34.8724C30.2918 34.8724 34.5963 30.5339 34.5963 25.2001C34.5963 19.8663 30.2913 15.5273 25.0003 15.5273ZM25.0003 33.6129C20.3983 33.6129 16.6543 29.8394 16.6543 25.2006C16.6543 20.5618 20.3983 16.7873 25.0003 16.7873C29.6023 16.7873 33.3463 20.5613 33.3463 25.2001C33.3463 29.8389 29.6023 33.6129 25.0003 33.6129Z" fill="#F38821"/>
<path d="M24.9996 21.5415C22.9981 21.5415 21.3701 23.183 21.3701 25.2005C21.3701 27.2181 22.9981 28.8596 24.9996 28.8596C27.0011 28.8596 28.6296 27.2181 28.6296 25.2005C28.6296 23.183 27.0011 21.5415 24.9996 21.5415ZM24.9996 27.5991C23.6871 27.5991 22.6201 26.523 22.6201 25.2C22.6201 23.877 23.6876 22.801 24.9996 22.801C26.3116 22.801 27.3796 23.877 27.3796 25.2C27.3796 26.523 26.3116 27.5991 24.9996 27.5991Z" fill="#F38821"/>
</svg>
