<svg width="43" height="54" viewBox="0 0 43 54" fill="none" xmlns="http://www.w3.org/2000/svg">
<path d="M19.379 10.9422L11.4983 19.978L13.8229 26.3959L25.6407 28.2272L19.379 10.9422ZM31.1594 17.3406C30.7143 17.5026 30.2216 17.272 30.0603 16.8248C29.8991 16.3777 30.1287 15.8826 30.5737 15.7206L37.545 13.1714C37.99 13.0094 38.4828 13.2401 38.6441 13.6872C38.8053 14.1343 38.5757 14.6294 38.1306 14.7914L31.1594 17.3406ZM29.2411 11.1353C28.8825 11.4477 28.3394 11.4101 28.0285 11.0511C27.7176 10.6908 27.7551 10.1452 28.1124 9.83284L33.3408 5.25662C33.6994 4.94428 34.2425 4.98187 34.5534 5.34086C34.8643 5.70115 34.8269 6.24678 34.4696 6.55911L29.2411 11.1353ZM33.0441 23.4384C32.5707 23.4306 32.194 23.0392 32.2004 22.5649C32.2082 22.0892 32.5978 21.7108 33.0699 21.7173L40.0037 21.8469C40.4772 21.8547 40.8538 22.2461 40.8474 22.7204C40.8397 23.196 40.4501 23.5745 39.9779 23.568L33.0441 23.4384ZM25.5117 15.1245C26.149 15.0493 26.7811 15.1698 27.3358 15.4485C28.0505 15.8075 28.6348 16.4321 28.9277 17.2409C29.2192 18.047 29.1728 18.9023 28.8554 19.6385C28.609 20.21 28.2014 20.7116 27.6635 21.0654L30.1442 27.9135C30.3467 28.4747 30.3041 29.0696 30.0706 29.5737C29.8371 30.0818 29.4088 30.5004 28.8464 30.7064L28.8206 30.7155C28.2685 30.9099 27.6854 30.8632 27.19 30.6313C26.9243 30.5094 26.6831 30.3319 26.4857 30.1077L13.2721 28.0587L12.8283 28.2207L15.1968 34.7591C15.3993 35.3202 15.3567 35.9112 15.1258 36.4102C14.8936 36.9117 14.4692 37.3252 13.9106 37.5286L12.5445 38.0289C11.9898 38.2311 11.4016 38.187 10.9023 37.9537C10.4044 37.7205 9.99158 37.2954 9.79033 36.7368L7.42187 30.1997L6.97553 30.363C6.36148 30.5872 5.71131 30.5405 5.16306 30.2839C4.60835 30.0221 4.15427 29.5517 3.9298 28.9348L2.29536 24.4247C2.07219 23.809 2.12121 23.1559 2.37792 22.6012C2.63463 22.0478 3.10291 21.5903 3.71695 21.3661L10.0212 19.0618L18.8256 8.96581C18.8346 8.66643 18.9056 8.37353 19.0294 8.10655C19.2603 7.60111 19.6886 7.18379 20.2523 6.97643C20.8122 6.77166 21.4043 6.81573 21.9087 7.0516C22.4118 7.28359 22.8272 7.71386 23.0323 8.28022L25.5117 15.1245ZM27.0404 19.3443C27.141 19.2276 27.2223 19.0967 27.2829 18.9555C27.4313 18.6107 27.4532 18.209 27.3152 17.8279C27.1784 17.4482 26.9036 17.1553 26.5695 16.9868C26.4341 16.9194 26.287 16.8715 26.1348 16.8469L27.0391 19.3443H27.0404ZM10.0045 20.8995L4.30004 22.9861C4.12976 23.0483 3.99947 23.1753 3.92851 23.3295C3.85756 23.4825 3.84466 23.6639 3.90658 23.8363L5.54103 28.3464C5.60295 28.5162 5.72808 28.6471 5.87901 28.7183C6.0364 28.7896 6.21829 28.8039 6.38857 28.7417L12.0904 26.6564L10.0045 20.8995ZM9.03181 29.6087L11.4016 36.1484C11.4415 36.2598 11.5254 36.3467 11.626 36.3933C11.7266 36.44 11.8453 36.4491 11.9576 36.4076L13.3237 35.9073C13.4333 35.8672 13.5172 35.7829 13.5649 35.6818C13.6126 35.5781 13.6217 35.4589 13.5817 35.3475L11.2132 28.8104L9.03052 29.6087H9.03181ZM21.1824 8.6133C21.0792 8.56405 20.958 8.55497 20.8406 8.59515L20.8341 8.59774C20.7206 8.63922 20.6316 8.72735 20.5826 8.83362C20.531 8.9386 20.522 9.06431 20.5645 9.18225L27.6777 28.8155C27.7189 28.9296 27.8067 29.019 27.9124 29.0683C28.0053 29.1149 28.1163 29.1266 28.2233 29.0981L28.2981 29.0709C28.3949 29.0255 28.4697 28.9464 28.5123 28.8531C28.5652 28.7456 28.5729 28.6198 28.5304 28.5019L21.4172 8.86861C21.3759 8.75456 21.2882 8.66514 21.1824 8.61459V8.6133Z" fill="black"/>
</svg>
