<svg width="23" height="34" viewBox="0 0 23 34" fill="none" xmlns="http://www.w3.org/2000/svg">
<path fill-rule="evenodd" clip-rule="evenodd" d="M19.8276 0H0.793103C0.35531 0 0 0.35531 0 0.793103V32.5172C0 32.955 0.35531 33.3103 0.793103 33.3103H19.8276C20.2654 33.3103 20.6207 32.955 20.6207 32.5172C20.6207 32.0794 20.2654 31.7241 19.8276 31.7241H1.58621V1.58621H19.8276C20.2654 1.58621 20.6207 1.2309 20.6207 0.793103C20.6207 0.35531 20.2654 0 19.8276 0ZM20.6207 15.8621H5.55172C5.11393 15.8621 4.75862 16.2174 4.75862 16.6552C4.75862 17.093 5.11393 17.4483 5.55172 17.4483H20.6207L18.0035 20.9379C17.7401 21.2885 17.8115 21.785 18.1621 22.0483C18.3048 22.1546 18.4714 22.2069 18.6363 22.2069L18.6744 22.2053C18.9028 22.1958 19.1249 22.0863 19.2724 21.8897L22.8604 17.1041L22.9381 16.9629L22.981 16.8297L23 16.6758L22.9952 16.5632L22.9588 16.4046L22.9143 16.2983L22.8414 16.1793L19.2724 11.4207C19.0091 11.0701 18.5126 10.9988 18.1621 11.2621C17.8115 11.5254 17.7401 12.0219 18.0035 12.3724L20.6207 15.8621Z" fill="#F38821"/>
</svg>
