<svg width="21" height="30" viewBox="0 0 21 30" fill="none" xmlns="http://www.w3.org/2000/svg">
<path fill-rule="evenodd" clip-rule="evenodd" d="M17.8571 0H0.714286C0.32 0 0 0.32 0 0.714286V29.2857C0 29.68 0.32 30 0.714286 30H17.8571C18.2514 30 18.5714 29.68 18.5714 29.2857C18.5714 28.8914 18.2514 28.5714 17.8571 28.5714H1.42857V1.42857H17.8571C18.2514 1.42857 18.5714 1.10857 18.5714 0.714286C18.5714 0.32 18.2514 0 17.8571 0ZM18.5714 14.2857H5C4.60571 14.2857 4.28571 14.6057 4.28571 15C4.28571 15.3943 4.60571 15.7143 5 15.7143H18.5714L16.2143 18.8571C15.9771 19.1729 16.0414 19.62 16.3571 19.8571C16.4857 19.9529 16.6357 20 16.7843 20L16.8186 19.9986C17.0243 19.99 17.2243 19.8914 17.3571 19.7143L20.5886 15.4043L20.6586 15.2771L20.6972 15.1571L20.7143 15.0186L20.71 14.9171L20.6771 14.7743L20.6371 14.6786L20.5714 14.5714L17.3571 10.2857C17.12 9.97 16.6729 9.90571 16.3571 10.1429C16.0414 10.38 15.9771 10.8271 16.2143 11.1429L18.5714 14.2857Z" fill="black"/>
</svg>
