<svg width="944" height="580" viewBox="0 0 944 580" fill="none" xmlns="http://www.w3.org/2000/svg">
<path d="M681.579 131.346C681.579 131.346 711.633 95.034 769.259 118.173C826.887 141.314 883.285 236.326 830.867 351.272" stroke="#274D79" stroke-width="0.782"/>
<path fill-rule="evenodd" clip-rule="evenodd" d="M687.435 156.66C684.8 163.443 658.603 153.234 661.237 146.451L664.908 137.006C667.723 129.76 675.87 126.174 683.102 128.991C690.339 131.813 693.922 139.969 691.106 147.215L687.435 156.66Z" fill="#FF4C00"/>
<path fill-rule="evenodd" clip-rule="evenodd" d="M661.236 146.451C658.247 153.085 684.799 163.444 687.435 156.66C689.437 151.423 663.39 141.673 661.236 146.451Z" fill="#3B55CE"/>
<path fill-rule="evenodd" clip-rule="evenodd" d="M671.582 151.543C671.295 152.391 670.043 152.734 668.782 152.305C667.519 151.879 666.729 150.847 667.014 150C667.299 149.152 668.554 148.809 669.815 149.238C671.078 149.664 671.867 150.696 671.582 151.543Z" fill="#000E5B"/>
<path fill-rule="evenodd" clip-rule="evenodd" d="M680.881 154.981C680.593 155.828 679.341 156.169 678.08 155.743C676.817 155.317 676.026 154.283 676.313 153.435C676.598 152.587 677.852 152.247 679.113 152.673C680.376 153.101 681.166 154.133 680.881 154.981Z" fill="#000E5B"/>
<path fill-rule="evenodd" clip-rule="evenodd" d="M826.682 486.422C826.682 486.422 815.354 483.297 807.966 472.921C800.578 462.543 804.518 437.757 817.323 430.666C830.127 423.58 839.978 415.194 838.009 395.959C836.04 376.723 842.443 361.434 858.697 359.462C874.951 357.488 881.354 357.247 897.608 342.571C913.862 327.896 927.158 325.572 933.561 333.884C939.965 342.198 935.039 353.43 931.592 363.351C928.145 373.271 940.458 383.394 942.921 393.377C945.383 403.357 943.412 416.235 930.607 423.36C917.801 430.484 908.937 436.191 910.415 449.121C911.891 462.049 904.503 481.694 876.92 486.422H826.682Z" fill="#FF4C00"/>
<path d="M912.877 354.645C912.877 354.645 852.879 401.792 842.243 486.422" stroke="#2EB6CC" stroke-width="1.575" stroke-linecap="round"/>
<path fill-rule="evenodd" clip-rule="evenodd" d="M770.531 319.482C761.078 325.431 761.665 335.743 762.159 348.835C762.65 361.927 758.902 366.686 751.418 375.404C743.935 384.122 747.97 397.438 760.977 403.356C773.979 409.277 785.307 418.423 778.413 433.825C771.516 449.228 773.979 477.255 807.965 486.421L851.665 486.519C851.665 486.519 882.338 468.636 886.278 435.997C890.219 403.356 864.115 400.475 856.727 389.585C849.339 378.696 851.534 363.858 851.665 348.835C851.801 333.813 840.473 326.208 825.205 327.051C809.936 327.894 803.973 327.034 796.092 321.634C788.213 316.236 778.413 314.523 770.531 319.482Z" fill="#F38821"/>
<path d="M785.729 338.855C785.821 339.29 838.881 375.398 836.28 486.254" stroke="#2EB6CC" stroke-width="1.575" stroke-linecap="round"/>
<path fill-rule="evenodd" clip-rule="evenodd" d="M908.408 492.834H3.95582C2.04797 492.834 0.501953 491.286 0.501953 489.375C0.501953 487.465 2.04797 485.917 3.95582 485.917H908.408C910.315 485.917 911.862 487.465 911.862 489.375C911.862 491.286 910.315 492.834 908.408 492.834Z" fill="#638BE2"/>
<mask id="mask0_399_1780" style="mask-type:luminance" maskUnits="userSpaceOnUse" x="154" y="492" width="699" height="88">
<path fill-rule="evenodd" clip-rule="evenodd" d="M154.908 492.833H852.983V579.142H154.908V492.833Z" fill="white"/>
</mask>
<g mask="url(#mask0_399_1780)">
<path fill-rule="evenodd" clip-rule="evenodd" d="M783.606 579.143H224.286C185.969 579.143 154.908 548.039 154.908 509.669V492.833H852.983V509.669C852.983 548.039 821.923 579.143 783.606 579.143Z" fill="#E5F7FF"/>
</g>
<path fill-rule="evenodd" clip-rule="evenodd" d="M454.447 456.487C461.833 462.446 482.925 486.358 563.493 486.358C585.964 486.358 610.237 487.298 629.952 481.94C680.92 468.081 714.285 449.521 714.285 449.521L615.709 415.929L527.336 416.435L454.447 456.487Z" fill="#131313"/>
<path fill-rule="evenodd" clip-rule="evenodd" d="M522.266 442.393L483.719 449.745L485.113 470.765L528.319 469.7L522.266 442.393Z" fill="#FF9A8D"/>
<path fill-rule="evenodd" clip-rule="evenodd" d="M522.266 442.393C522.266 442.393 615.709 415.93 644.765 408.536C678.034 400.068 728.504 377.085 745.519 398.388C762.532 419.689 741.778 448.063 695.753 460.503C649.727 472.941 523.781 471.718 523.781 471.718L522.266 442.393Z" fill="#1C1C1C"/>
<path fill-rule="evenodd" clip-rule="evenodd" d="M447.451 436.888C447.451 436.888 445.94 441.719 446.181 451.955C446.42 462.192 451.598 469.959 452.126 484.89C452.126 484.89 457.916 475.355 457.637 459.88C457.357 444.405 447.451 436.888 447.451 436.888Z" fill="#8FC9C6"/>
<path fill-rule="evenodd" clip-rule="evenodd" d="M503.35 471.234C497.313 471.88 487.221 476.597 481.028 479.882C474.835 483.165 471.53 486.6 460.485 486.52C460.485 486.52 460.441 457.277 459.259 448.23C458.075 439.184 456.25 437.634 456.25 437.634C456.25 437.634 466.482 438.286 471.572 441.018C476.66 443.748 477.23 444.999 486.21 445.348C495.185 445.7 498.859 446.183 502.775 446.11C508.731 455.437 506.361 466.763 503.35 471.234Z" fill="#03AA99"/>
<path d="M477.221 474.691C477.221 474.691 480.649 459.506 475.627 449.119" stroke="#AAEEED" stroke-width="0.924" stroke-linecap="round"/>
<path d="M483.555 472.92C483.555 472.92 486.882 461.38 481.996 450.33" stroke="#AAEEED" stroke-width="0.924" stroke-linecap="round"/>
<path d="M490.68 470.057C490.68 470.057 493.691 462.343 489.691 450.948" stroke="#AAEEED" stroke-width="0.924" stroke-linecap="round"/>
<path fill-rule="evenodd" clip-rule="evenodd" d="M460.485 486.52C456.987 486.457 452.718 486.356 452.126 484.891C451.534 483.424 455.621 474.695 453.994 457.4C453.121 448.106 446.613 437.197 447.453 436.887C448.29 436.582 453.404 434.663 456.251 437.634C459.099 440.605 473.531 459.576 460.485 486.52Z" fill="#AAEEED"/>
<path fill-rule="evenodd" clip-rule="evenodd" d="M692.068 250.062C704.219 241.454 730.41 221.424 744.188 178.417C748.56 164.767 748.949 155.405 748.832 149.14C741.729 143.145 742.473 131.821 735.991 124.789C726.877 114.901 718.71 102.351 736.537 102.351C746.479 102.351 755.624 102.755 760.514 107.494C764.393 111.251 771.722 122.365 773.069 126.234C776.104 134.983 772.58 146 772.198 159.31C771.819 172.621 763.084 255.905 698.904 290.891L692.068 250.062Z" fill="#FF9A8D"/>
<path fill-rule="evenodd" clip-rule="evenodd" d="M552.971 217.693C552.971 217.693 552.682 228.353 551.756 232.753C550.831 237.156 551.756 239.473 538.338 241.79C538.338 241.79 543.79 259.397 567.041 262.41C590.297 265.42 599.782 247.117 599.086 247.117C598.393 247.117 591.916 244.451 589.834 243.101C587.751 241.75 589.291 216.073 589.291 216.073L552.971 217.693Z" fill="#FF9A8D"/>
<path fill-rule="evenodd" clip-rule="evenodd" d="M588.976 222.571C588.976 222.571 586.134 231.594 572.023 232.521C557.907 233.45 552.65 224.539 552.65 224.539L552.971 217.694L589.29 216.073L588.976 222.571Z" fill="#BA5964"/>
<path fill-rule="evenodd" clip-rule="evenodd" d="M530.776 179.001C530.776 179.001 523.483 177.857 520.276 183.231C517.07 188.604 521.077 198.644 528.671 200.318C535.947 201.923 538.337 197.836 538.337 197.836L530.776 179.001Z" fill="#FF9A8D"/>
<path fill-rule="evenodd" clip-rule="evenodd" d="M524.401 184.366C526.074 183.496 528.723 183.235 530.363 184.234C530.971 184.605 530.151 185.642 529.598 185.514C526.469 184.809 522.802 185.143 521.798 188.835C521.745 189.03 521.587 188.852 521.596 188.725C521.717 186.746 522.616 185.293 524.401 184.366Z" fill="#BA5964"/>
<path fill-rule="evenodd" clip-rule="evenodd" d="M525.83 184.456C526.139 184.254 527.003 184.979 526.966 185.218C526.512 185.51 525.81 186.169 525.529 186.869C525.049 188.073 524.996 189.063 525.277 190.343C525.917 193.286 527.874 195.199 530.863 195.484C530.917 195.489 531.025 195.627 530.941 195.662C528.501 196.63 525.292 194.404 524.409 192.219C523.429 189.799 523.124 186.217 525.83 184.456Z" fill="#BA5964"/>
<path fill-rule="evenodd" clip-rule="evenodd" d="M601.333 165.433C601.333 165.433 607.693 161.663 612.66 165.464C617.627 169.267 617.618 180.078 611.182 184.45C605.017 188.638 601.287 185.733 601.287 185.733L601.333 165.433Z" fill="#FF9A8D"/>
<path fill-rule="evenodd" clip-rule="evenodd" d="M609.249 168.05C607.376 167.863 604.817 168.603 603.661 170.14C603.234 170.709 604.378 171.368 604.848 171.045C607.492 169.229 611.025 168.179 613.319 171.234C613.442 171.396 613.523 171.174 613.468 171.058C612.622 169.266 611.251 168.247 609.249 168.05Z" fill="#BA5964"/>
<path fill-rule="evenodd" clip-rule="evenodd" d="M607.955 168.663C607.593 168.59 607.06 169.583 607.18 169.792C607.713 169.895 608.606 170.248 609.126 170.795C610.018 171.731 610.433 172.633 610.648 173.924C611.139 176.898 610.031 179.399 607.36 180.774C607.31 180.798 607.264 180.967 607.352 180.967C609.979 180.965 612.132 177.704 612.145 175.345C612.161 172.736 611.119 169.295 607.955 168.663Z" fill="#BA5964"/>
<path fill-rule="evenodd" clip-rule="evenodd" d="M575.199 130.031C569.534 128.085 563.497 127.468 557.688 128.584C551.875 129.704 546.155 132.291 541.616 136.199C531.02 145.319 526.928 159.742 529.507 173.263C529.511 173.28 529.516 173.3 529.52 173.32C530.257 177.187 531.222 181.01 532.408 184.763L534.066 190.011C535.362 194.12 538.289 201.973 542.969 209.153C552.252 223.401 567.324 225.74 575.999 224.073C584.672 222.404 597.81 214.639 601.161 197.963C602.849 189.557 602.665 181.177 602.351 176.879L601.948 171.39C601.661 167.465 601.143 163.557 600.4 159.69C600.395 159.67 600.391 159.65 600.387 159.63C597.784 146.116 588.413 134.57 575.199 130.031Z" fill="#FF9A8D"/>
<path fill-rule="evenodd" clip-rule="evenodd" d="M580.414 170.48C580.02 168.427 581.364 166.446 583.412 166.051C585.463 165.658 587.443 167.002 587.838 169.053C588.228 171.106 586.888 173.089 584.84 173.482C582.789 173.877 580.809 172.533 580.414 170.48Z" fill="#001C45"/>
<path fill-rule="evenodd" clip-rule="evenodd" d="M581.327 156.762L599.123 160.14C599.123 160.14 597.857 155.245 591.529 152.682C588.768 151.562 585.663 151.663 583.766 152.713C581.027 154.23 581.327 156.762 581.327 156.762Z" fill="#001C45"/>
<path fill-rule="evenodd" clip-rule="evenodd" d="M550.781 162.198L537.768 174.814C537.768 174.814 536.136 170.027 540.02 164.403C541.713 161.948 544.362 160.323 546.524 160.156C549.643 159.914 550.781 162.198 550.781 162.198Z" fill="#001C45"/>
<path fill-rule="evenodd" clip-rule="evenodd" d="M556.683 175.57C556.288 173.517 554.308 172.173 552.257 172.568C550.209 172.962 548.867 174.945 549.26 176.998C549.654 179.049 551.635 180.395 553.685 180C555.733 179.607 557.077 177.624 556.683 175.57Z" fill="#001C45"/>
<path fill-rule="evenodd" clip-rule="evenodd" d="M569.816 171.854C568.101 172.311 566.849 189.887 569.226 192.388C570.213 193.423 572.676 194.165 574.02 193.778C575.413 193.638 577.428 192.035 577.959 190.708C579.241 187.504 571.582 171.643 569.816 171.854Z" fill="#BA5964"/>
<path d="M510.774 140.239C510.774 140.239 524.276 137.604 529.417 144.538" stroke="#001C45" stroke-width="1.715" stroke-linecap="round"/>
<path d="M510.383 126.931C510.383 126.931 527.137 129.755 529.659 145.794" stroke="#001C45" stroke-width="1.715" stroke-linecap="round"/>
<path fill-rule="evenodd" clip-rule="evenodd" d="M535.044 144.567C535.044 144.567 544.491 158.806 560.015 163.013C575.541 167.221 584.315 149.225 582.742 141.038C582.742 141.038 597.92 165.506 601.334 165.433C601.334 165.433 605.034 155.562 603.825 144.539C602.615 133.515 597.409 128.029 591.782 123.96C586.429 120.089 581.207 122.423 579.056 123.82C576.234 118.495 567.914 107.223 551.533 109.063C533.211 111.118 526.086 123.789 528.757 143.124C528.757 143.124 521.878 141.181 517.759 149.179C513.641 157.176 518.224 172.706 523.704 180.071C523.704 180.071 528.483 178.563 530.777 179.002C530.777 179.002 527.56 166.211 530.579 154.994C533.035 145.869 535.044 144.567 535.044 144.567Z" fill="#001C45"/>
<path fill-rule="evenodd" clip-rule="evenodd" d="M544.105 240.572C545.748 247.206 555.116 257.725 568.73 258.361C582.346 258.998 593.589 249.841 595.446 245.809C606.814 246.863 621.25 249.951 626.099 250.836C632.965 252.085 639.623 258.219 637.169 277.572C634.787 296.365 619.897 415.16 619.897 415.16C619.897 415.16 580.536 430.454 527.338 416.433C527.338 416.433 495.146 287.493 492.28 276.34C489.418 265.184 485.916 253.392 496.1 249.887C506.284 246.38 544.105 240.572 544.105 240.572Z" fill="#2EB6CC"/>
<path fill-rule="evenodd" clip-rule="evenodd" d="M588.04 377.748C588.793 377.893 589.547 378.007 590.31 378.086C597.81 378.872 594.398 370.385 592.043 367.042C588.444 361.935 563.493 342.571 563.493 342.571L544.105 344.209L522.266 353.221L513.29 360.2C515.104 367.457 516.865 374.504 518.492 381.02C526.656 375.896 546.399 363.759 550.78 363.351C553.519 363.096 555.993 364.045 558.462 365.112C562.017 366.647 565.583 368.039 569.219 369.37C570.868 369.972 572.521 370.576 574.1 371.342C576.955 372.725 579.543 374.621 582.424 375.951C584.216 376.775 586.106 377.372 588.04 377.748Z" fill="#03AA99"/>
<path d="M671.826 337.099L685.955 343.847" stroke="#274D79" stroke-width="2.1" stroke-linecap="round"/>
<path d="M665.852 348.835L679.981 355.584" stroke="#274D79" stroke-width="2.1" stroke-linecap="round"/>
<path fill-rule="evenodd" clip-rule="evenodd" d="M674.006 329.445C680.434 332.849 667.285 357.731 660.86 354.327L651.913 349.586C645.051 345.952 642.433 337.434 646.062 330.563C649.693 323.692 658.2 321.07 665.061 324.704L674.006 329.445Z" fill="#FF4C00"/>
<path fill-rule="evenodd" clip-rule="evenodd" d="M626.098 250.835C639.029 252.948 671.939 262.614 692.068 249.061C692.068 249.061 705.359 269.356 703.078 294.836C703.078 294.836 675.798 319.191 633.161 309.419L626.098 250.835Z" fill="#2EB6CC"/>
<path fill-rule="evenodd" clip-rule="evenodd" d="M629.953 448.408L667.792 458.824L664.719 479.664L621.74 475.142L629.953 448.408Z" fill="#FF9A8D"/>
<path fill-rule="evenodd" clip-rule="evenodd" d="M629.953 448.408C629.953 448.408 543.007 418.379 510.773 406.549C478.542 394.724 431.297 371.067 412.635 390.938C393.974 410.809 409.563 440.402 454.448 456.487C499.333 472.573 626.1 477.518 626.1 477.518C629.983 468.082 631.238 458.376 629.953 448.408Z" fill="#85B8ED"/>
<path fill-rule="evenodd" clip-rule="evenodd" d="M704.968 448.915C704.968 448.915 706.089 453.851 705.03 464.036C703.973 474.221 698.192 481.546 696.473 496.387C696.473 496.387 691.462 486.417 692.98 471.015C694.497 455.614 704.968 448.915 704.968 448.915Z" fill="#8FC9C6"/>
<path fill-rule="evenodd" clip-rule="evenodd" d="M646.505 478.672C652.472 479.8 662.156 485.31 668.066 489.078C673.974 492.846 676.996 496.538 688.013 497.344C688.013 497.344 690.395 468.195 692.296 459.275C694.195 450.353 696.138 448.954 696.138 448.954C696.138 448.954 685.886 448.785 680.596 451.099C675.305 453.414 674.638 454.615 665.66 454.244C656.685 453.875 652.983 454.061 649.084 453.675C642.404 462.494 643.861 473.972 646.505 478.672Z" fill="#03AA99"/>
<path d="M672.274 484.213C672.274 484.213 670.07 468.799 675.906 458.85" stroke="#AAEEED" stroke-width="0.924" stroke-linecap="round"/>
<path d="M666.102 481.94C666.102 481.94 663.707 470.171 669.459 459.545" stroke="#AAEEED" stroke-width="0.924" stroke-linecap="round"/>
<path d="M659.227 478.513C659.227 478.513 656.841 470.585 661.74 459.544" stroke="#AAEEED" stroke-width="0.924" stroke-linecap="round"/>
<path fill-rule="evenodd" clip-rule="evenodd" d="M688.012 497.344C691.501 497.561 695.766 497.8 696.472 496.386C697.183 494.976 693.806 485.947 696.808 468.838C698.42 459.643 705.781 449.289 704.968 448.914C704.156 448.541 699.211 446.219 696.137 448.953C693.062 451.687 677.161 469.439 688.012 497.344Z" fill="#AAEEED"/>
<path fill-rule="evenodd" clip-rule="evenodd" d="M629.839 464.035H627.883C627.883 464.035 571.211 460.35 510.522 450.33C450.902 440.486 410.599 420.41 405.191 405.64C402.537 423.502 419.712 444.039 454.448 456.486C499.331 472.573 626.1 477.518 626.1 477.518C627.732 473.603 629.038 469.2 629.839 464.035Z" fill="#4E7EAC"/>
<path fill-rule="evenodd" clip-rule="evenodd" d="M502 312.635C502 312.635 509.115 294.72 504.253 268.296C504.253 268.296 513.169 300.535 503.494 318.296L502 312.635Z" fill="#03AA99"/>
<path fill-rule="evenodd" clip-rule="evenodd" d="M632.914 308.634C632.914 308.634 635.332 288.275 631 269.296C631 269.296 636.265 280.215 635.99 309.296L632.914 308.634Z" fill="#03AA99"/>
<path fill-rule="evenodd" clip-rule="evenodd" d="M363.341 412.488C371.144 410.895 384.813 409.502 394.522 418.102C400.73 423.602 397.79 424.556 392.25 424.457C382.919 424.287 375.484 432.226 375.484 432.226C375.484 432.226 363.348 433.632 360.367 423.857C356.049 409.698 363.341 412.488 363.341 412.488Z" fill="#E09B36"/>
<path fill-rule="evenodd" clip-rule="evenodd" d="M333.151 484.247H393.615C407.421 484.559 416.837 483.499 423.613 477.524C431.478 470.582 432.847 458.201 431.592 448.731C430.125 444.921 421.768 447.743 411.465 446.007C402.117 444.431 396.71 440.233 391.365 433.13C386.059 426.081 383.207 423.244 372.701 418.147C366.921 415.345 362.251 415.625 362.251 415.625C362.251 415.625 365.963 407.545 371.584 402.365C378.382 396.103 366.263 393.614 352.449 399.801C344.248 403.475 335.656 410.653 329.62 417.5C325.702 421.939 315.463 421.275 304.364 412.781C293.27 404.288 254.354 369.036 211.738 374.964C169.124 380.893 139.534 415.664 135.193 440.663C130.853 465.658 139.214 479.856 146.45 484.295L333.151 484.247Z" fill="#FABA50"/>
<path fill-rule="evenodd" clip-rule="evenodd" d="M139 441.341C127.138 434.892 96.8097 434.478 73.9653 452.724C51.6912 470.514 42.413 507.639 60.7631 535.652C79.1132 563.662 115.423 564.54 120.11 560.58C124.793 556.617 100.749 542.316 94.2215 524.053C94.2215 524.053 107.226 532.351 114.644 533.132C122.06 533.917 103.32 514.721 101.368 494.376C99.4155 474.03 109.433 451.706 134.098 452.693L139 441.341Z" fill="#FABA50"/>
<path fill-rule="evenodd" clip-rule="evenodd" d="M430.603 462.289C429.264 462.541 429.756 455.347 428.131 456.036C426.504 456.723 429.138 460.407 429.138 460.407C424.516 459.301 417.994 452.858 420.592 448.87C423.272 444.759 430.778 446.631 432.538 447.346C435.219 448.431 437.067 457.104 430.603 462.289Z" fill="#001C45"/>
<path fill-rule="evenodd" clip-rule="evenodd" d="M205 406.473C205 406.473 221.282 407.824 227.517 425.52C233.751 443.217 226.82 453.845 221.686 459.562C221.686 459.562 244.788 457.348 255.059 464.17C265.326 470.99 264.408 484.263 264.408 484.263L270 484.296C270 484.296 270.244 468.047 259.425 461.229C248.605 454.407 239.473 453.557 233.421 453.977C233.421 453.977 239.776 440.197 232.505 423.985C225.236 407.782 211.419 405.551 205 406.473Z" fill="#E09B36"/>
<path fill-rule="evenodd" clip-rule="evenodd" d="M290 458.575C290 458.575 314.044 455.883 324.229 463.617C334.417 471.351 333.211 484.248 333.211 484.248L338.924 484.296C338.924 484.296 340.427 470.515 330.073 462.105C319.722 453.698 296.845 456.221 290 458.575Z" fill="#E09B36"/>
<path fill-rule="evenodd" clip-rule="evenodd" d="M359.049 448.296C359.049 448.296 358.04 442.212 365.202 440.615C372.929 438.893 375 444.697 375 444.697C375 444.697 371.09 443.19 365.939 444.456C362.16 445.385 359.049 448.296 359.049 448.296Z" fill="#001C45"/>
<path fill-rule="evenodd" clip-rule="evenodd" d="M450.548 108.909C451.947 110.15 453.005 111.572 453.731 113.182C454.459 114.795 454.875 116.454 454.976 118.162C455.077 119.871 454.856 121.561 454.312 123.233C453.768 124.906 452.891 126.426 451.683 127.791C450.445 129.19 449.031 130.261 447.439 131.003C445.847 131.746 444.201 132.166 442.495 132.271C440.792 132.374 439.106 132.155 437.438 131.608C435.769 131.06 434.239 130.168 432.843 128.927C431.481 127.716 430.411 126.301 429.64 124.677C428.866 123.053 428.427 121.388 428.326 119.68C428.223 117.971 428.436 116.274 428.964 114.587C429.493 112.901 430.378 111.359 431.615 109.961C432.823 108.594 434.23 107.546 435.835 106.817C437.442 106.089 439.097 105.672 440.805 105.571C442.511 105.467 444.219 105.696 445.935 106.254C447.647 106.812 449.186 107.698 450.548 108.909ZM388.658 48.2959L435.228 96.6559L419.629 114.292L368 71.6519L388.658 48.2959Z" fill="#F38821"/>
<mask id="mask1_399_1780" style="mask-type:luminance" maskUnits="userSpaceOnUse" x="433" y="0" width="73" height="98">
<path fill-rule="evenodd" clip-rule="evenodd" d="M433.676 0H505.156V97.5814H433.676V0Z" fill="white"/>
</mask>
<g mask="url(#mask1_399_1780)">
<path fill-rule="evenodd" clip-rule="evenodd" d="M492.4 80.9273C492.85 82.7447 492.922 84.5202 492.617 86.2628C492.307 88.0076 491.715 89.6137 490.84 91.0813C489.964 92.551 488.832 93.8206 487.445 94.8943C486.062 95.9658 484.488 96.7227 482.728 97.1671C480.925 97.6204 479.164 97.7018 477.439 97.4113C475.715 97.1209 474.128 96.5356 472.668 95.6534C471.21 94.7711 469.95 93.6336 468.887 92.2342C467.822 90.8371 467.069 89.2309 466.617 87.4157C466.178 85.6423 466.095 83.8646 466.372 82.0868C466.65 80.3068 467.226 78.6831 468.101 77.2155C468.979 75.7436 470.105 74.463 471.487 73.3695C472.868 72.2782 474.458 71.5059 476.261 71.0527C478.02 70.6104 479.764 70.5444 481.493 70.8525C483.222 71.1649 484.815 71.759 486.271 72.6412C487.729 73.5235 489.006 74.683 490.102 76.1154C491.196 77.5499 491.962 79.1539 492.4 80.9273ZM485.287 65.3629L464.534 70.5862C463.164 66.2848 462.504 62.5598 462.552 59.4157C462.598 56.2694 463.046 53.5499 463.891 51.2573C464.733 48.9625 465.835 46.9977 467.191 45.3629C468.549 43.7303 469.902 42.2716 471.26 40.9867C472.615 39.7039 473.796 38.4982 474.798 37.3695C475.802 36.2386 476.372 34.9999 476.518 33.6489C476.621 32.8348 476.492 31.957 476.127 31.0175C475.765 30.0824 475.117 29.2683 474.185 28.5818C473.255 27.8953 472.011 27.4311 470.45 27.1891C468.889 26.947 466.984 27.1077 464.733 27.6753C463.26 28.045 461.544 28.6192 459.584 29.3959C457.624 30.1748 455.609 31.1187 453.535 32.2342C451.466 33.3453 449.453 34.5752 447.504 35.9217C445.555 37.2661 443.85 38.6698 442.385 40.1352L433.676 16.5576C434.966 15.2683 436.441 13.9019 438.107 12.452C439.768 11.0042 441.652 9.6093 443.754 8.26937C445.858 6.92944 448.196 5.67091 450.776 4.49819C453.354 3.32327 456.198 2.34417 459.311 1.5609C464.342 0.295768 469.276 -0.203682 474.104 0.0735456C478.932 0.348573 483.364 1.42448 487.393 3.30347C491.423 5.18246 494.915 7.86233 497.864 11.3497C500.815 14.837 502.928 19.1583 504.205 24.3156C505.177 28.2342 505.404 31.5169 504.886 34.1704C504.369 36.8194 503.441 39.1231 502.097 41.0813C500.758 43.0417 499.152 44.804 497.277 46.3706C495.406 47.9372 493.605 49.5851 491.881 51.3123C490.159 53.0395 488.666 55.0021 487.406 57.2023C486.149 59.4047 485.442 62.1264 485.287 65.3629Z" fill="#F38821"/>
</g>
<path d="M468.593 398.388C487.171 401.102 520.096 401.768 549.192 375.403C572.621 354.175 593.995 313.644 648.402 331.46" stroke="#274D79" stroke-width="0.782"/>
<path fill-rule="evenodd" clip-rule="evenodd" d="M481.71 269.382C481.71 269.382 437.691 349.056 429.687 362.491C421.683 375.93 423.332 391.016 424.979 394.784C426.628 398.557 449.46 401.151 470.412 393.135C491.359 385.122 545.302 357.677 549.305 355.556C549.305 355.556 554.427 358.935 559.581 361.38C566.778 364.794 572.607 364.935 577.269 368.468C581.931 372.004 587.051 378.743 596.067 374.386C601.433 371.795 589.529 355.073 584.201 345.848C578.992 341.383 560.385 333.669 551.059 335C537.866 336.879 471.618 359.462 471.618 359.462L495.624 317.983L481.71 269.382Z" fill="#FF9A8D"/>
<path fill-rule="evenodd" clip-rule="evenodd" d="M498.38 249.151C487.571 252.552 483.406 257.856 472.832 277.108C462.256 296.362 448.273 319.788 448.273 319.788C448.273 319.788 459.637 337.525 484.687 342.571L501.691 313.809L498.38 249.151Z" fill="#2EB6CC"/>
<path fill-rule="evenodd" clip-rule="evenodd" d="M454.787 456.535C499.664 472.709 626.41 477.682 626.41 477.682C630.291 468.194 631.548 458.434 630.263 448.411C630.263 448.411 543.331 418.216 511.105 406.323C487.807 397.727 456.664 382.912 434.146 382.91C425.514 382.91 418.154 385.085 412.984 390.623C394.323 410.604 409.91 440.361 454.787 456.535Z" fill="#656565"/>
<mask id="mask2_399_1780" style="mask-type:luminance" maskUnits="userSpaceOnUse" x="405" y="382" width="226" height="96">
<path fill-rule="evenodd" clip-rule="evenodd" d="M454.787 456.535C499.664 472.709 626.41 477.682 626.41 477.682C630.291 468.194 631.548 458.434 630.263 448.411C630.263 448.411 543.331 418.216 511.105 406.323C487.807 397.727 456.664 382.912 434.146 382.91C425.514 382.91 418.154 385.085 412.984 390.623C394.323 410.604 409.91 440.361 454.787 456.535Z" fill="white"/>
</mask>
<g mask="url(#mask2_399_1780)">
<path d="M619.006 443.282C618.931 451.182 617.322 468.929 613.864 479.841" stroke="#274D79" stroke-width="0.782"/>
</g>
</svg>
