<svg width="534" height="686" viewBox="0 0 534 686" fill="none" xmlns="http://www.w3.org/2000/svg">
<rect x="1" width="523" height="685" fill="url(#paint0_linear_384_1781)"/>
<path d="M1 307C1 201.847 250.661 -40.0053 500 26.3448" stroke="#FFB36A" stroke-width="1.4"/>
<path d="M12 358C12 252.487 261.661 9.8063 511 76.3837" stroke="#FFB36A" stroke-width="1.4"/>
<path d="M25 421C25 315.847 274.661 73.9947 524 140.345" stroke="#FFB36A" stroke-width="1.4"/>
<g clip-path="url(#clip0_384_1781)">
<path d="M382.138 681.425C375.468 675.779 371.416 666.861 372.479 658.179C373.542 649.497 380.123 641.515 388.659 639.672C397.195 637.828 406.926 642.932 409.519 651.284C410.946 635.181 412.59 618.402 421.138 604.689C428.878 592.271 442.283 583.386 456.811 581.797C471.339 580.207 486.635 586.211 495.696 597.697C504.756 609.182 506.975 625.88 500.629 639.067C495.954 648.781 487.342 656.01 478.318 661.892C449.159 680.737 414.186 688.401 379.835 683.472L382.138 681.425Z" fill="#FFB36A"/>
<path d="M511.081 587.59C499.093 597.371 488.096 608.309 478.248 620.247C462.836 638.866 450.364 659.742 441.268 682.147C440.602 683.781 443.251 684.493 443.91 682.877C458.794 646.464 482.554 614.371 513.018 589.531C514.386 588.415 512.437 586.484 511.081 587.59Z" fill="#F7D6B6"/>
<path d="M180.718 679.938C189.88 672.184 195.445 659.934 193.985 648.01C192.526 636.085 183.487 625.122 171.762 622.59C160.037 620.058 146.672 627.067 143.111 638.54C141.151 616.421 138.892 593.377 127.152 574.541C116.522 557.486 98.11 545.282 78.1557 543.099C58.2013 540.915 37.1919 549.161 24.7471 564.937C12.3023 580.713 9.25522 603.647 17.9712 621.759C24.392 635.102 36.2214 645.031 48.6156 653.109C88.1574 678.882 137.209 689.63 183.882 682.75" fill="#FFB36A"/>
<path d="M44.4798 550.618C60.9447 564.051 76.0494 579.075 89.5756 595.472C103.104 611.853 115.014 629.509 125.139 648.193C130.798 658.673 135.882 669.456 140.368 680.492C141.283 682.737 137.643 683.714 136.739 681.494C128.793 662.038 118.963 643.408 107.39 625.873C95.8723 608.401 82.69 592.089 68.028 577.167C59.7351 568.731 50.9854 560.758 41.8185 553.284C39.9396 551.751 42.6164 549.098 44.4798 550.618L44.4798 550.618Z" fill="#F7D6B6"/>
<path d="M386.982 685.317H168.402V460.677C168.402 412.883 207.221 374 254.936 374H300.449C348.163 374 386.982 412.883 386.982 460.677V685.317Z" fill="#F2F2F2"/>
<path d="M341.469 685.317H168.402V460.677C168.354 442.363 174.143 424.513 184.927 409.724C185.325 409.181 185.721 408.646 186.13 408.116C191.346 401.263 197.554 395.228 204.547 390.21C204.943 389.922 205.339 389.639 205.742 389.356C211.594 385.3 217.924 381.984 224.589 379.484C224.985 379.333 225.388 379.183 225.79 379.038C231.818 376.884 238.066 375.408 244.42 374.638C244.814 374.584 245.218 374.542 245.622 374.5C251.814 373.837 258.058 373.837 264.25 374.5C264.653 374.542 265.058 374.584 265.456 374.639C271.808 375.409 278.055 376.884 284.081 379.038C284.484 379.183 284.887 379.333 285.284 379.484C291.866 381.953 298.122 385.219 303.912 389.211C304.314 389.488 304.717 389.771 305.113 390.053C309.033 392.856 312.715 395.979 316.122 399.389C318.854 402.125 321.4 405.041 323.742 408.118C324.15 408.646 324.546 409.181 324.943 409.723C335.727 424.512 341.517 442.363 341.469 460.677V685.317Z" fill="#CCCCCC"/>
<path d="M327.397 584.844C332.688 584.844 336.978 580.547 336.978 575.246C336.978 569.946 332.688 565.649 327.397 565.649C322.105 565.649 317.815 569.946 317.815 575.246C317.815 580.547 322.105 584.844 327.397 584.844Z" fill="#970009"/>
<path d="M369.076 678.589H361.734L358.241 650.223L369.077 650.224L369.076 678.589Z" fill="#FFB8B8"/>
<path d="M356.49 676.487H370.649V685.417H347.575C347.575 684.244 347.805 683.083 348.253 682C348.701 680.916 349.358 679.932 350.186 679.103C351.014 678.274 351.996 677.616 353.078 677.167C354.16 676.718 355.319 676.487 356.49 676.487Z" fill="#2F2E41"/>
<path d="M405.606 678.589H398.264L394.771 650.223L405.607 650.224L405.606 678.589Z" fill="#FFB8B8"/>
<path d="M393.02 676.487H407.179V685.417H384.104C384.104 684.244 384.335 683.083 384.783 682C385.231 680.916 385.888 679.932 386.716 679.103C387.543 678.274 388.526 677.616 389.608 677.167C390.69 676.718 391.849 676.487 393.02 676.487Z" fill="#2F2E41"/>
<path d="M332.246 577.148C331.718 576.368 331.367 575.482 331.217 574.552C331.068 573.622 331.124 572.67 331.382 571.764C331.639 570.858 332.092 570.02 332.708 569.308C333.324 568.596 334.088 568.028 334.947 567.644L359.905 498.743L372.185 505.456L343.689 571.301C344.238 572.789 344.222 574.426 343.645 575.903C343.069 577.381 341.971 578.595 340.56 579.315C339.15 580.036 337.524 580.213 335.992 579.814C334.46 579.414 333.127 578.466 332.246 577.148Z" fill="#FFB8B8"/>
<path d="M401.856 590.095C401.04 589.626 400.336 588.984 399.795 588.214C399.254 587.443 398.887 586.563 398.722 585.636C398.557 584.709 398.597 583.756 398.839 582.846C399.081 581.936 399.519 581.089 400.123 580.367L392.392 507.481L406.367 508.121L409.581 579.814C410.725 580.91 411.428 582.389 411.556 583.97C411.684 585.551 411.229 587.124 410.277 588.391C409.325 589.658 407.942 590.532 406.39 590.846C404.837 591.16 403.224 590.892 401.856 590.095Z" fill="#FFB8B8"/>
<path d="M379.56 485.98C387.683 485.98 394.268 479.384 394.268 471.248C394.268 463.111 387.683 456.515 379.56 456.515C371.437 456.515 364.852 463.111 364.852 471.248C364.852 479.384 371.437 485.98 379.56 485.98Z" fill="#FFB8B8"/>
<path d="M401.761 573.518H357.418L357.472 573.172C357.552 572.656 365.375 521.323 359.605 504.529C359.026 502.879 359.077 501.072 359.748 499.457C360.419 497.842 361.662 496.533 363.239 495.781H363.24C371.487 491.891 387.318 487.101 400.68 498.726C402.646 500.465 404.181 502.638 405.165 505.074C406.148 507.509 406.552 510.141 406.345 512.76L401.761 573.518Z" fill="#970009"/>
<path d="M365.935 528.909L345.972 524.852L355.329 502.64C355.889 500.489 357.278 498.648 359.192 497.521C361.105 496.394 363.387 496.073 365.536 496.629C367.685 497.185 369.526 498.572 370.656 500.485C371.786 502.399 372.111 504.684 371.562 506.838L365.935 528.909Z" fill="#970009"/>
<path d="M391.504 536.442L390.304 508.884C389.393 503.704 392.354 498.807 396.907 498.006C401.462 497.209 405.909 500.801 406.823 506.02L411.334 531.77L391.504 536.442Z" fill="#970009"/>
<path d="M400.286 570.219C407.421 597.438 408.2 632.044 406.275 669.792L396.693 668.593L379.327 596.612L369.745 669.792L358.966 669.192C355.745 629.585 352.61 595.583 357.768 573.218L400.286 570.219Z" fill="#2F2E41"/>
<path d="M389.251 482.633C386.507 485.561 381.411 483.989 381.054 479.99C381.026 479.679 381.028 479.367 381.06 479.057C381.245 477.285 382.266 475.677 382.022 473.806C381.966 473.34 381.793 472.897 381.519 472.517C379.332 469.584 374.199 473.829 372.136 471.174C370.87 469.546 372.358 466.982 371.387 465.163C370.105 462.761 366.309 463.946 363.929 462.631C361.28 461.168 361.439 457.097 363.182 454.621C365.308 451.602 369.036 449.991 372.718 449.759C376.399 449.527 380.055 450.523 383.492 451.865C387.398 453.389 391.27 455.496 393.673 458.936C396.596 463.119 396.877 468.742 395.415 473.633C394.526 476.608 391.492 480.243 389.251 482.633Z" fill="#2F2E41"/>
<path d="M293.861 620.234H216.01C214.985 620.24 213.999 619.838 213.27 619.116C212.54 618.395 212.126 617.413 212.118 616.386V442.331C212.126 441.304 212.54 440.322 213.27 439.601C213.999 438.879 214.985 438.477 216.01 438.483H293.861C294.886 438.477 295.872 438.879 296.601 439.601C297.331 440.322 297.745 441.304 297.753 442.331V616.386C297.745 617.413 297.331 618.395 296.601 619.116C295.872 619.838 294.886 620.24 293.861 620.234Z" fill="white"/>
<path d="M297.753 494.802H212.118V496.001H297.753V494.802Z" fill="#CCCCCC"/>
<path d="M298.053 563.25H212.417V564.449H298.053V563.25Z" fill="#CCCCCC"/>
<path d="M240.264 438.483H239.066V620.834H240.264V438.483Z" fill="#CCCCCC"/>
<path d="M270.206 438.483H269.009V620.834H270.206V438.483Z" fill="#CCCCCC"/>
<path d="M149.762 486.02C175.353 486.02 196.099 465.241 196.099 439.608C196.099 413.975 175.353 393.195 149.762 393.195C124.172 393.195 103.426 413.975 103.426 439.608C103.426 465.241 124.172 486.02 149.762 486.02Z" fill="#E54750"/>
<path d="M168.959 459.83H130.566C129.864 459.83 129.191 459.55 128.695 459.053C128.198 458.555 127.919 457.881 127.918 457.178V433.972C127.919 433.269 128.198 432.594 128.695 432.097C129.191 431.6 129.864 431.32 130.566 431.32H168.959C169.661 431.32 170.334 431.6 170.831 432.097C171.327 432.594 171.606 433.269 171.607 433.972V457.178C171.606 457.881 171.327 458.555 170.831 459.053C170.334 459.55 169.661 459.83 168.959 459.83ZM130.566 433.972V457.178H168.961L168.959 433.972L130.566 433.972Z" fill="white"/>
<path d="M161.678 433.972H137.848V423.363C137.848 415.679 142.859 410.102 149.763 410.102C156.667 410.102 161.678 415.679 161.678 423.363L161.678 433.972ZM140.495 431.32H159.03V423.363C159.03 417.117 155.219 412.754 149.763 412.754C144.306 412.754 140.495 417.117 140.495 423.363L140.495 431.32Z" fill="white"/>
<path d="M149.763 447.564C151.225 447.564 152.41 446.377 152.41 444.912C152.41 443.447 151.225 442.26 149.763 442.26C148.3 442.26 147.115 443.447 147.115 444.912C147.115 446.377 148.3 447.564 149.763 447.564Z" fill="white"/>
</g>
<defs>
<linearGradient id="paint0_linear_384_1781" x1="1.00001" y1="312" x2="524" y2="314.5" gradientUnits="userSpaceOnUse">
<stop stop-color="#F38821"/>
<stop offset="1" stop-color="#E54750"/>
</linearGradient>
<clipPath id="clip0_384_1781">
<rect width="521" height="312" fill="white" transform="translate(13 374)"/>
</clipPath>
</defs>
</svg>
